<mxfile host="Electron" modified="2024-06-30T20:12:42.274Z" agent="Mozilla/5.0 (X11; Linux x86_64) AppleWebKit/537.36 (KHTML, like Gecko) draw.io/24.5.3 Chrome/124.0.6367.207 Electron/30.0.6 Safari/537.36" etag="Ju53nfznuzMCYC4_JXSD" version="24.5.3" type="device" pages="2">
  <diagram name="Class diagram (program logic)" id="mnseYtSpthiiUfIY8SHr">
    <mxGraphModel dx="5019" dy="2653" grid="1" gridSize="10" guides="1" tooltips="1" connect="1" arrows="1" fold="1" page="1" pageScale="1" pageWidth="850" pageHeight="1100" math="0" shadow="0">
      <root>
        <mxCell id="0" />
        <mxCell id="1" parent="0" />
        <mxCell id="p_RgDi4whr3n8FJ-VYJ--31" style="edgeStyle=orthogonalEdgeStyle;rounded=0;orthogonalLoop=1;jettySize=auto;html=1;startArrow=classic;startFill=1;strokeWidth=2;" parent="1" source="7tHV_hbjyb579lzm8SB6-1" edge="1">
          <mxGeometry relative="1" as="geometry">
            <mxPoint x="-1320" y="-50" as="targetPoint" />
          </mxGeometry>
        </mxCell>
        <mxCell id="7tHV_hbjyb579lzm8SB6-1" value="CommunicationController (singleton)" style="swimlane;html=1;fontStyle=1;align=center;verticalAlign=top;childLayout=stackLayout;horizontal=1;startSize=26;horizontalStack=0;resizeParent=1;resizeLast=0;collapsible=1;marginBottom=0;swimlaneFillColor=#ffffff;rounded=0;shadow=0;comic=0;labelBackgroundColor=none;strokeWidth=1;fillColor=none;fontFamily=Verdana;fontSize=12;strokeColor=#E07A5F;fontColor=#393C56;" parent="1" vertex="1">
          <mxGeometry x="-1430" y="-345" width="220" height="250" as="geometry" />
        </mxCell>
        <mxCell id="7tHV_hbjyb579lzm8SB6-2" value="- portNumber: int" style="text;html=1;strokeColor=none;fillColor=none;align=left;verticalAlign=top;spacingLeft=4;spacingRight=4;whiteSpace=wrap;overflow=hidden;rotatable=0;points=[[0,0.5],[1,0.5]];portConstraint=eastwest;labelBackgroundColor=none;fontColor=#393C56;" parent="7tHV_hbjyb579lzm8SB6-1" vertex="1">
          <mxGeometry y="26" width="220" height="26" as="geometry" />
        </mxCell>
        <mxCell id="7tHV_hbjyb579lzm8SB6-3" value="- baudRate: int&lt;div&gt;&lt;br&gt;&lt;/div&gt;" style="text;html=1;strokeColor=none;fillColor=none;align=left;verticalAlign=top;spacingLeft=4;spacingRight=4;whiteSpace=wrap;overflow=hidden;rotatable=0;points=[[0,0.5],[1,0.5]];portConstraint=eastwest;labelBackgroundColor=none;fontColor=#393C56;" parent="7tHV_hbjyb579lzm8SB6-1" vertex="1">
          <mxGeometry y="52" width="220" height="26" as="geometry" />
        </mxCell>
        <mxCell id="7tHV_hbjyb579lzm8SB6-4" value="- startBit: int" style="text;html=1;strokeColor=none;fillColor=none;align=left;verticalAlign=top;spacingLeft=4;spacingRight=4;whiteSpace=wrap;overflow=hidden;rotatable=0;points=[[0,0.5],[1,0.5]];portConstraint=eastwest;labelBackgroundColor=none;fontColor=#393C56;" parent="7tHV_hbjyb579lzm8SB6-1" vertex="1">
          <mxGeometry y="78" width="220" height="26" as="geometry" />
        </mxCell>
        <mxCell id="7tHV_hbjyb579lzm8SB6-5" value="- endBit: int" style="text;html=1;strokeColor=none;fillColor=none;align=left;verticalAlign=top;spacingLeft=4;spacingRight=4;whiteSpace=wrap;overflow=hidden;rotatable=0;points=[[0,0.5],[1,0.5]];portConstraint=eastwest;labelBackgroundColor=none;fontColor=#393C56;" parent="7tHV_hbjyb579lzm8SB6-1" vertex="1">
          <mxGeometry y="104" width="220" height="26" as="geometry" />
        </mxCell>
        <mxCell id="7tHV_hbjyb579lzm8SB6-6" value="- serialPort: SerialPort" style="text;html=1;strokeColor=none;fillColor=none;align=left;verticalAlign=top;spacingLeft=4;spacingRight=4;whiteSpace=wrap;overflow=hidden;rotatable=0;points=[[0,0.5],[1,0.5]];portConstraint=eastwest;labelBackgroundColor=none;fontColor=#393C56;" parent="7tHV_hbjyb579lzm8SB6-1" vertex="1">
          <mxGeometry y="130" width="220" height="26" as="geometry" />
        </mxCell>
        <mxCell id="7tHV_hbjyb579lzm8SB6-7" value="" style="line;html=1;strokeWidth=1;fillColor=none;align=left;verticalAlign=middle;spacingTop=-1;spacingLeft=3;spacingRight=3;rotatable=0;labelPosition=right;points=[];portConstraint=eastwest;labelBackgroundColor=none;strokeColor=#E07A5F;fontColor=#393C56;" parent="7tHV_hbjyb579lzm8SB6-1" vertex="1">
          <mxGeometry y="156" width="220" height="8" as="geometry" />
        </mxCell>
        <mxCell id="7tHV_hbjyb579lzm8SB6-8" value="+ isOpen(int portNumber): boolean" style="text;html=1;strokeColor=none;fillColor=none;align=left;verticalAlign=top;spacingLeft=4;spacingRight=4;whiteSpace=wrap;overflow=hidden;rotatable=0;points=[[0,0.5],[1,0.5]];portConstraint=eastwest;labelBackgroundColor=none;fontColor=#393C56;" parent="7tHV_hbjyb579lzm8SB6-1" vertex="1">
          <mxGeometry y="164" width="220" height="30" as="geometry" />
        </mxCell>
        <mxCell id="7tHV_hbjyb579lzm8SB6-10" value="+ getSerialPort() : SerialPort" style="text;html=1;strokeColor=none;fillColor=none;align=left;verticalAlign=top;spacingLeft=4;spacingRight=4;whiteSpace=wrap;overflow=hidden;rotatable=0;points=[[0,0.5],[1,0.5]];portConstraint=eastwest;labelBackgroundColor=none;fontColor=#393C56;" parent="7tHV_hbjyb579lzm8SB6-1" vertex="1">
          <mxGeometry y="194" width="220" height="26" as="geometry" />
        </mxCell>
        <mxCell id="7tHV_hbjyb579lzm8SB6-9" value="- dataIncoming() : boolean" style="text;html=1;strokeColor=none;fillColor=none;align=left;verticalAlign=top;spacingLeft=4;spacingRight=4;whiteSpace=wrap;overflow=hidden;rotatable=0;points=[[0,0.5],[1,0.5]];portConstraint=eastwest;labelBackgroundColor=none;fontColor=#393C56;" parent="7tHV_hbjyb579lzm8SB6-1" vertex="1">
          <mxGeometry y="220" width="220" height="30" as="geometry" />
        </mxCell>
        <mxCell id="7tHV_hbjyb579lzm8SB6-11" value="&lt;div&gt;SerialLogger(singleton)&lt;/div&gt;" style="swimlane;html=1;fontStyle=1;align=center;verticalAlign=top;childLayout=stackLayout;horizontal=1;startSize=26;horizontalStack=0;resizeParent=1;resizeLast=0;collapsible=1;marginBottom=0;swimlaneFillColor=#ffffff;rounded=0;shadow=0;comic=0;labelBackgroundColor=none;strokeWidth=1;fillColor=none;fontFamily=Verdana;fontSize=12;strokeColor=#E07A5F;fontColor=#393C56;" parent="1" vertex="1">
          <mxGeometry x="-1080" y="250" width="590" height="157" as="geometry" />
        </mxCell>
        <mxCell id="7tHV_hbjyb579lzm8SB6-12" value="" style="line;html=1;strokeWidth=1;fillColor=none;align=left;verticalAlign=middle;spacingTop=-1;spacingLeft=3;spacingRight=3;rotatable=0;labelPosition=right;points=[];portConstraint=eastwest;labelBackgroundColor=none;strokeColor=#E07A5F;fontColor=#393C56;" parent="7tHV_hbjyb579lzm8SB6-11" vertex="1">
          <mxGeometry y="26" width="590" height="8" as="geometry" />
        </mxCell>
        <mxCell id="7tHV_hbjyb579lzm8SB6-13" value="- ArrayList&amp;lt;Log&amp;gt; SerialLog: Arraylist&amp;lt;Log&amp;gt;" style="text;html=1;strokeColor=none;fillColor=none;align=left;verticalAlign=top;spacingLeft=4;spacingRight=4;whiteSpace=wrap;overflow=hidden;rotatable=0;points=[[0,0.5],[1,0.5]];portConstraint=eastwest;labelBackgroundColor=none;fontColor=#393C56;" parent="7tHV_hbjyb579lzm8SB6-11" vertex="1">
          <mxGeometry y="34" width="590" height="26" as="geometry" />
        </mxCell>
        <mxCell id="7tHV_hbjyb579lzm8SB6-14" value="" style="line;html=1;strokeWidth=1;fillColor=none;align=left;verticalAlign=middle;spacingTop=-1;spacingLeft=3;spacingRight=3;rotatable=0;labelPosition=right;points=[];portConstraint=eastwest;labelBackgroundColor=none;strokeColor=#E07A5F;fontColor=#393C56;" parent="7tHV_hbjyb579lzm8SB6-11" vertex="1">
          <mxGeometry y="60" width="590" height="8" as="geometry" />
        </mxCell>
        <mxCell id="7tHV_hbjyb579lzm8SB6-15" value="+addLog(String type, Time time, Object message): void (&lt;u&gt;Object message is changed to String&lt;/u&gt;, ID is set inside class)" style="text;html=1;strokeColor=none;fillColor=none;align=left;verticalAlign=top;spacingLeft=4;spacingRight=4;whiteSpace=wrap;overflow=hidden;rotatable=0;points=[[0,0.5],[1,0.5]];portConstraint=eastwest;labelBackgroundColor=none;fontColor=#393C56;" parent="7tHV_hbjyb579lzm8SB6-11" vertex="1">
          <mxGeometry y="68" width="590" height="46" as="geometry" />
        </mxCell>
        <mxCell id="7tHV_hbjyb579lzm8SB6-16" value="+getLog(int searchID) : Log (searching inside the arraylist)" style="text;html=1;strokeColor=none;fillColor=none;align=left;verticalAlign=top;spacingLeft=4;spacingRight=4;whiteSpace=wrap;overflow=hidden;rotatable=0;points=[[0,0.5],[1,0.5]];portConstraint=eastwest;labelBackgroundColor=none;fontColor=#393C56;" parent="7tHV_hbjyb579lzm8SB6-11" vertex="1">
          <mxGeometry y="114" width="590" height="26" as="geometry" />
        </mxCell>
        <mxCell id="7tHV_hbjyb579lzm8SB6-17" value="-Log" style="swimlane;html=1;fontStyle=1;align=center;verticalAlign=top;childLayout=stackLayout;horizontal=1;startSize=26;horizontalStack=0;resizeParent=1;resizeLast=0;collapsible=1;marginBottom=0;swimlaneFillColor=#ffffff;rounded=0;shadow=0;comic=0;labelBackgroundColor=none;strokeWidth=1;fillColor=none;fontFamily=Verdana;fontSize=12;strokeColor=#E07A5F;fontColor=#393C56;" parent="1" vertex="1">
          <mxGeometry x="-470" y="440" width="330" height="228.75" as="geometry" />
        </mxCell>
        <mxCell id="7tHV_hbjyb579lzm8SB6-18" value="- type: String (LogType logType)" style="text;html=1;strokeColor=none;fillColor=none;align=left;verticalAlign=top;spacingLeft=4;spacingRight=4;whiteSpace=wrap;overflow=hidden;rotatable=0;points=[[0,0.5],[1,0.5]];portConstraint=eastwest;labelBackgroundColor=none;fontColor=#393C56;" parent="7tHV_hbjyb579lzm8SB6-17" vertex="1">
          <mxGeometry y="26" width="330" height="26" as="geometry" />
        </mxCell>
        <mxCell id="7tHV_hbjyb579lzm8SB6-19" value="- time: TIME(HH:MM:SS)" style="text;html=1;strokeColor=none;fillColor=none;align=left;verticalAlign=top;spacingLeft=4;spacingRight=4;whiteSpace=wrap;overflow=hidden;rotatable=0;points=[[0,0.5],[1,0.5]];portConstraint=eastwest;labelBackgroundColor=none;fontColor=#393C56;" parent="7tHV_hbjyb579lzm8SB6-17" vertex="1">
          <mxGeometry y="52" width="330" height="26" as="geometry" />
        </mxCell>
        <mxCell id="7tHV_hbjyb579lzm8SB6-20" value="- message: Sring" style="text;html=1;strokeColor=none;fillColor=none;align=left;verticalAlign=top;spacingLeft=4;spacingRight=4;whiteSpace=wrap;overflow=hidden;rotatable=0;points=[[0,0.5],[1,0.5]];portConstraint=eastwest;labelBackgroundColor=none;fontColor=#393C56;" parent="7tHV_hbjyb579lzm8SB6-17" vertex="1">
          <mxGeometry y="78" width="330" height="26" as="geometry" />
        </mxCell>
        <mxCell id="7tHV_hbjyb579lzm8SB6-21" value="" style="line;html=1;strokeWidth=1;fillColor=none;align=left;verticalAlign=middle;spacingTop=-1;spacingLeft=3;spacingRight=3;rotatable=0;labelPosition=right;points=[];portConstraint=eastwest;labelBackgroundColor=none;strokeColor=#E07A5F;fontColor=#393C56;" parent="7tHV_hbjyb579lzm8SB6-17" vertex="1">
          <mxGeometry y="104" width="330" height="8" as="geometry" />
        </mxCell>
        <mxCell id="7tHV_hbjyb579lzm8SB6-22" value="- Log(String type, Time time, String message): Log" style="text;html=1;strokeColor=none;fillColor=none;align=left;verticalAlign=top;spacingLeft=4;spacingRight=4;whiteSpace=wrap;overflow=hidden;rotatable=0;points=[[0,0.5],[1,0.5]];portConstraint=eastwest;labelBackgroundColor=none;fontColor=#393C56;" parent="7tHV_hbjyb579lzm8SB6-17" vertex="1">
          <mxGeometry y="112" width="330" height="26" as="geometry" />
        </mxCell>
        <mxCell id="7tHV_hbjyb579lzm8SB6-23" value="+ getTime(ID): Date(HH:MM:SS)" style="text;html=1;strokeColor=none;fillColor=none;align=left;verticalAlign=top;spacingLeft=4;spacingRight=4;whiteSpace=wrap;overflow=hidden;rotatable=0;points=[[0,0.5],[1,0.5]];portConstraint=eastwest;labelBackgroundColor=none;fontColor=#393C56;" parent="7tHV_hbjyb579lzm8SB6-17" vertex="1">
          <mxGeometry y="138" width="330" height="26" as="geometry" />
        </mxCell>
        <mxCell id="7tHV_hbjyb579lzm8SB6-24" value="+ getType(ID): String (&quot;RX&quot;, &quot;TX&quot;)" style="text;html=1;strokeColor=none;fillColor=none;align=left;verticalAlign=top;spacingLeft=4;spacingRight=4;whiteSpace=wrap;overflow=hidden;rotatable=0;points=[[0,0.5],[1,0.5]];portConstraint=eastwest;labelBackgroundColor=none;fontColor=#393C56;" parent="7tHV_hbjyb579lzm8SB6-17" vertex="1">
          <mxGeometry y="164" width="330" height="26" as="geometry" />
        </mxCell>
        <mxCell id="7tHV_hbjyb579lzm8SB6-25" value="+ getMessage(ID): String" style="text;html=1;strokeColor=none;fillColor=none;align=left;verticalAlign=top;spacingLeft=4;spacingRight=4;whiteSpace=wrap;overflow=hidden;rotatable=0;points=[[0,0.5],[1,0.5]];portConstraint=eastwest;labelBackgroundColor=none;fontColor=#393C56;" parent="7tHV_hbjyb579lzm8SB6-17" vertex="1">
          <mxGeometry y="190" width="330" height="26" as="geometry" />
        </mxCell>
        <mxCell id="7tHV_hbjyb579lzm8SB6-26" style="edgeStyle=orthogonalEdgeStyle;rounded=0;orthogonalLoop=1;jettySize=auto;html=1;strokeColor=default;fontColor=#393C56;fillColor=#F2CC8F;endArrow=diamondThin;endFill=0;endSize=30;strokeWidth=2;" parent="1" source="7tHV_hbjyb579lzm8SB6-15" target="7tHV_hbjyb579lzm8SB6-17" edge="1">
          <mxGeometry relative="1" as="geometry">
            <Array as="points">
              <mxPoint x="-480" y="341" />
            </Array>
          </mxGeometry>
        </mxCell>
        <mxCell id="7tHV_hbjyb579lzm8SB6-27" value="&lt;font face=&quot;Verdana&quot;&gt;&lt;b&gt;enum LogType&lt;/b&gt;&lt;/font&gt;" style="swimlane;fontStyle=0;childLayout=stackLayout;horizontal=1;startSize=30;horizontalStack=0;resizeParent=1;resizeParentMax=0;resizeLast=0;collapsible=1;marginBottom=0;whiteSpace=wrap;html=1;labelBackgroundColor=none;fillColor=#F2CC8F;strokeColor=#E07A5F;fontColor=#393C56;" parent="1" vertex="1">
          <mxGeometry x="-360" y="160" width="180" height="150" as="geometry" />
        </mxCell>
        <mxCell id="7tHV_hbjyb579lzm8SB6-28" value="DATA_RX" style="text;strokeColor=none;fillColor=none;align=left;verticalAlign=middle;spacingLeft=4;spacingRight=4;overflow=hidden;points=[[0,0.5],[1,0.5]];portConstraint=eastwest;rotatable=0;whiteSpace=wrap;html=1;labelBackgroundColor=none;fontColor=#393C56;" parent="7tHV_hbjyb579lzm8SB6-27" vertex="1">
          <mxGeometry y="30" width="180" height="30" as="geometry" />
        </mxCell>
        <mxCell id="7tHV_hbjyb579lzm8SB6-29" value="DATA_TX" style="text;strokeColor=none;fillColor=none;align=left;verticalAlign=middle;spacingLeft=4;spacingRight=4;overflow=hidden;points=[[0,0.5],[1,0.5]];portConstraint=eastwest;rotatable=0;whiteSpace=wrap;html=1;labelBackgroundColor=none;fontColor=#393C56;" parent="7tHV_hbjyb579lzm8SB6-27" vertex="1">
          <mxGeometry y="60" width="180" height="30" as="geometry" />
        </mxCell>
        <mxCell id="7tHV_hbjyb579lzm8SB6-30" value="COMMUNICATION_REGUEST" style="text;strokeColor=none;fillColor=none;align=left;verticalAlign=middle;spacingLeft=4;spacingRight=4;overflow=hidden;points=[[0,0.5],[1,0.5]];portConstraint=eastwest;rotatable=0;whiteSpace=wrap;html=1;labelBackgroundColor=none;fontColor=#393C56;" parent="7tHV_hbjyb579lzm8SB6-27" vertex="1">
          <mxGeometry y="90" width="180" height="30" as="geometry" />
        </mxCell>
        <mxCell id="7tHV_hbjyb579lzm8SB6-31" value="MISSMATCH" style="text;strokeColor=none;fillColor=none;align=left;verticalAlign=middle;spacingLeft=4;spacingRight=4;overflow=hidden;points=[[0,0.5],[1,0.5]];portConstraint=eastwest;rotatable=0;whiteSpace=wrap;html=1;labelBackgroundColor=none;fontColor=#393C56;" parent="7tHV_hbjyb579lzm8SB6-27" vertex="1">
          <mxGeometry y="120" width="180" height="30" as="geometry" />
        </mxCell>
        <mxCell id="7tHV_hbjyb579lzm8SB6-32" style="edgeStyle=orthogonalEdgeStyle;rounded=0;orthogonalLoop=1;jettySize=auto;html=1;" parent="1" source="7tHV_hbjyb579lzm8SB6-33" target="7tHV_hbjyb579lzm8SB6-115" edge="1">
          <mxGeometry relative="1" as="geometry" />
        </mxCell>
        <mxCell id="7tHV_hbjyb579lzm8SB6-33" value="HardwareNode" style="swimlane;html=1;fontStyle=1;align=center;verticalAlign=top;childLayout=stackLayout;horizontal=1;startSize=26;horizontalStack=0;resizeParent=1;resizeLast=0;collapsible=1;marginBottom=0;swimlaneFillColor=#ffffff;rounded=0;shadow=0;comic=0;labelBackgroundColor=none;strokeWidth=1;fillColor=none;fontFamily=Verdana;fontSize=12;strokeColor=#E07A5F;fontColor=#393C56;" parent="1" vertex="1">
          <mxGeometry x="-950" y="-1170" width="320" height="404" as="geometry" />
        </mxCell>
        <mxCell id="7tHV_hbjyb579lzm8SB6-34" value="- ID: int" style="text;html=1;strokeColor=none;fillColor=none;align=left;verticalAlign=top;spacingLeft=4;spacingRight=4;whiteSpace=wrap;overflow=hidden;rotatable=0;points=[[0,0.5],[1,0.5]];portConstraint=eastwest;labelBackgroundColor=none;fontColor=#393C56;" parent="7tHV_hbjyb579lzm8SB6-33" vertex="1">
          <mxGeometry y="26" width="320" height="24" as="geometry" />
        </mxCell>
        <mxCell id="7tHV_hbjyb579lzm8SB6-35" value="- name: String" style="text;html=1;strokeColor=none;fillColor=none;align=left;verticalAlign=top;spacingLeft=4;spacingRight=4;whiteSpace=wrap;overflow=hidden;rotatable=0;points=[[0,0.5],[1,0.5]];portConstraint=eastwest;labelBackgroundColor=none;fontColor=#393C56;" parent="7tHV_hbjyb579lzm8SB6-33" vertex="1">
          <mxGeometry y="50" width="320" height="26" as="geometry" />
        </mxCell>
        <mxCell id="7tHV_hbjyb579lzm8SB6-36" value="- fxmlLoader: FXMLLoader (this loads the &quot;container&quot;)" style="text;html=1;strokeColor=none;fillColor=none;align=left;verticalAlign=top;spacingLeft=4;spacingRight=4;whiteSpace=wrap;overflow=hidden;rotatable=0;points=[[0,0.5],[1,0.5]];portConstraint=eastwest;labelBackgroundColor=none;fontColor=#393C56;" parent="7tHV_hbjyb579lzm8SB6-33" vertex="1">
          <mxGeometry y="76" width="320" height="26" as="geometry" />
        </mxCell>
        <mxCell id="7tHV_hbjyb579lzm8SB6-37" value="- imageView(String imagePath): ImageView" style="text;html=1;strokeColor=none;fillColor=none;align=left;verticalAlign=top;spacingLeft=4;spacingRight=4;whiteSpace=wrap;overflow=hidden;rotatable=0;points=[[0,0.5],[1,0.5]];portConstraint=eastwest;labelBackgroundColor=none;fontColor=#393C56;" parent="7tHV_hbjyb579lzm8SB6-33" vertex="1">
          <mxGeometry y="102" width="320" height="26" as="geometry" />
        </mxCell>
        <mxCell id="7tHV_hbjyb579lzm8SB6-38" value="- @FXML nameLabel: Label" style="text;html=1;strokeColor=none;fillColor=none;align=left;verticalAlign=top;spacingLeft=4;spacingRight=4;whiteSpace=wrap;overflow=hidden;rotatable=0;points=[[0,0.5],[1,0.5]];portConstraint=eastwest;labelBackgroundColor=none;fontColor=#393C56;" parent="7tHV_hbjyb579lzm8SB6-33" vertex="1">
          <mxGeometry y="128" width="320" height="26" as="geometry" />
        </mxCell>
        <mxCell id="7tHV_hbjyb579lzm8SB6-39" value="- @FXML spinningLabel: Label (red false, green true)" style="text;html=1;strokeColor=none;fillColor=none;align=left;verticalAlign=top;spacingLeft=4;spacingRight=4;whiteSpace=wrap;overflow=hidden;rotatable=0;points=[[0,0.5],[1,0.5]];portConstraint=eastwest;labelBackgroundColor=none;fontColor=#393C56;" parent="7tHV_hbjyb579lzm8SB6-33" vertex="1">
          <mxGeometry y="154" width="320" height="26" as="geometry" />
        </mxCell>
        <mxCell id="7tHV_hbjyb579lzm8SB6-40" value="- @FXML speedLabel: Label" style="text;html=1;strokeColor=none;fillColor=none;align=left;verticalAlign=top;spacingLeft=4;spacingRight=4;whiteSpace=wrap;overflow=hidden;rotatable=0;points=[[0,0.5],[1,0.5]];portConstraint=eastwest;labelBackgroundColor=none;fontColor=#393C56;" parent="7tHV_hbjyb579lzm8SB6-33" vertex="1">
          <mxGeometry y="180" width="320" height="26" as="geometry" />
        </mxCell>
        <mxCell id="7tHV_hbjyb579lzm8SB6-41" value="- @FXML tempLablel: Label" style="text;html=1;strokeColor=none;fillColor=none;align=left;verticalAlign=top;spacingLeft=4;spacingRight=4;whiteSpace=wrap;overflow=hidden;rotatable=0;points=[[0,0.5],[1,0.5]];portConstraint=eastwest;labelBackgroundColor=none;fontColor=#393C56;" parent="7tHV_hbjyb579lzm8SB6-33" vertex="1">
          <mxGeometry y="206" width="320" height="26" as="geometry" />
        </mxCell>
        <mxCell id="7tHV_hbjyb579lzm8SB6-42" value="- @FXML offsetLabel: Label" style="text;html=1;strokeColor=none;fillColor=none;align=left;verticalAlign=top;spacingLeft=4;spacingRight=4;whiteSpace=wrap;overflow=hidden;rotatable=0;points=[[0,0.5],[1,0.5]];portConstraint=eastwest;labelBackgroundColor=none;fontColor=#393C56;" parent="7tHV_hbjyb579lzm8SB6-33" vertex="1">
          <mxGeometry y="232" width="320" height="26" as="geometry" />
        </mxCell>
        <mxCell id="7tHV_hbjyb579lzm8SB6-43" value="" style="line;html=1;strokeWidth=1;fillColor=none;align=left;verticalAlign=middle;spacingTop=-1;spacingLeft=3;spacingRight=3;rotatable=0;labelPosition=right;points=[];portConstraint=eastwest;labelBackgroundColor=none;strokeColor=#E07A5F;fontColor=#393C56;" parent="7tHV_hbjyb579lzm8SB6-33" vertex="1">
          <mxGeometry y="258" width="320" height="8" as="geometry" />
        </mxCell>
        <mxCell id="7tHV_hbjyb579lzm8SB6-44" value="- @FXML realSpinningLabel: Label (red false, green true)" style="text;html=1;strokeColor=none;fillColor=none;align=left;verticalAlign=top;spacingLeft=4;spacingRight=4;whiteSpace=wrap;overflow=hidden;rotatable=0;points=[[0,0.5],[1,0.5]];portConstraint=eastwest;labelBackgroundColor=none;fontColor=#393C56;" parent="7tHV_hbjyb579lzm8SB6-33" vertex="1">
          <mxGeometry y="266" width="320" height="26" as="geometry" />
        </mxCell>
        <mxCell id="7tHV_hbjyb579lzm8SB6-45" value="- @FXML realSpeedLabel: Label" style="text;html=1;strokeColor=none;fillColor=none;align=left;verticalAlign=top;spacingLeft=4;spacingRight=4;whiteSpace=wrap;overflow=hidden;rotatable=0;points=[[0,0.5],[1,0.5]];portConstraint=eastwest;labelBackgroundColor=none;fontColor=#393C56;" parent="7tHV_hbjyb579lzm8SB6-33" vertex="1">
          <mxGeometry y="292" width="320" height="26" as="geometry" />
        </mxCell>
        <mxCell id="7tHV_hbjyb579lzm8SB6-46" value="- @FXML realTempLablel: Label" style="text;html=1;strokeColor=none;fillColor=none;align=left;verticalAlign=top;spacingLeft=4;spacingRight=4;whiteSpace=wrap;overflow=hidden;rotatable=0;points=[[0,0.5],[1,0.5]];portConstraint=eastwest;labelBackgroundColor=none;fontColor=#393C56;" parent="7tHV_hbjyb579lzm8SB6-33" vertex="1">
          <mxGeometry y="318" width="320" height="26" as="geometry" />
        </mxCell>
        <mxCell id="7tHV_hbjyb579lzm8SB6-47" value="- @FXML realOffsetLabel: Label" style="text;html=1;strokeColor=none;fillColor=none;align=left;verticalAlign=top;spacingLeft=4;spacingRight=4;whiteSpace=wrap;overflow=hidden;rotatable=0;points=[[0,0.5],[1,0.5]];portConstraint=eastwest;labelBackgroundColor=none;fontColor=#393C56;" parent="7tHV_hbjyb579lzm8SB6-33" vertex="1">
          <mxGeometry y="344" width="320" height="26" as="geometry" />
        </mxCell>
        <mxCell id="7tHV_hbjyb579lzm8SB6-48" value="" style="line;html=1;strokeWidth=1;fillColor=none;align=left;verticalAlign=middle;spacingTop=-1;spacingLeft=3;spacingRight=3;rotatable=0;labelPosition=right;points=[];portConstraint=eastwest;labelBackgroundColor=none;strokeColor=#E07A5F;fontColor=#393C56;" parent="7tHV_hbjyb579lzm8SB6-33" vertex="1">
          <mxGeometry y="370" width="320" height="8" as="geometry" />
        </mxCell>
        <mxCell id="7tHV_hbjyb579lzm8SB6-49" value="methods" style="text;html=1;strokeColor=none;fillColor=none;align=left;verticalAlign=top;spacingLeft=4;spacingRight=4;whiteSpace=wrap;overflow=hidden;rotatable=0;points=[[0,0.5],[1,0.5]];portConstraint=eastwest;labelBackgroundColor=none;fontColor=#393C56;" parent="7tHV_hbjyb579lzm8SB6-33" vertex="1">
          <mxGeometry y="378" width="320" height="26" as="geometry" />
        </mxCell>
        <mxCell id="7tHV_hbjyb579lzm8SB6-50" style="edgeStyle=orthogonalEdgeStyle;rounded=0;orthogonalLoop=1;jettySize=auto;html=1;exitX=0;exitY=0.5;exitDx=0;exitDy=0;curved=1;strokeWidth=2;endArrow=diamondThin;endFill=1;endSize=13;" parent="1" source="7tHV_hbjyb579lzm8SB6-63" target="7tHV_hbjyb579lzm8SB6-86" edge="1">
          <mxGeometry relative="1" as="geometry">
            <Array as="points">
              <mxPoint x="-1640" y="-653" />
              <mxPoint x="-1640" y="-265" />
            </Array>
          </mxGeometry>
        </mxCell>
        <mxCell id="7tHV_hbjyb579lzm8SB6-51" value="Fan" style="swimlane;html=1;fontStyle=1;align=center;verticalAlign=top;childLayout=stackLayout;horizontal=1;startSize=26;horizontalStack=0;resizeParent=1;resizeLast=0;collapsible=1;marginBottom=0;swimlaneFillColor=#ffffff;rounded=0;shadow=0;comic=0;labelBackgroundColor=none;strokeWidth=1;fillColor=none;fontFamily=Verdana;fontSize=12;strokeColor=#E07A5F;fontColor=#393C56;" parent="1" vertex="1">
          <mxGeometry x="-1510" y="-950" width="420" height="542" as="geometry" />
        </mxCell>
        <mxCell id="7tHV_hbjyb579lzm8SB6-52" value="- speed: int (0-100)" style="text;html=1;strokeColor=#9673a6;fillColor=#e1d5e7;align=left;verticalAlign=top;spacingLeft=4;spacingRight=4;whiteSpace=wrap;overflow=hidden;rotatable=0;points=[[0,0.5],[1,0.5]];portConstraint=eastwest;labelBackgroundColor=none;" parent="7tHV_hbjyb579lzm8SB6-51" vertex="1">
          <mxGeometry y="26" width="420" height="26" as="geometry" />
        </mxCell>
        <mxCell id="7tHV_hbjyb579lzm8SB6-53" value="- offset: int" style="text;html=1;strokeColor=#9673a6;fillColor=#e1d5e7;align=left;verticalAlign=top;spacingLeft=4;spacingRight=4;whiteSpace=wrap;overflow=hidden;rotatable=0;points=[[0,0.5],[1,0.5]];portConstraint=eastwest;labelBackgroundColor=none;" parent="7tHV_hbjyb579lzm8SB6-51" vertex="1">
          <mxGeometry y="52" width="420" height="26" as="geometry" />
        </mxCell>
        <mxCell id="7tHV_hbjyb579lzm8SB6-54" value="- spinning: boolean" style="text;html=1;strokeColor=#9673a6;fillColor=#e1d5e7;align=left;verticalAlign=top;spacingLeft=4;spacingRight=4;whiteSpace=wrap;overflow=hidden;rotatable=0;points=[[0,0.5],[1,0.5]];portConstraint=eastwest;labelBackgroundColor=none;" parent="7tHV_hbjyb579lzm8SB6-51" vertex="1">
          <mxGeometry y="78" width="420" height="26" as="geometry" />
        </mxCell>
        <mxCell id="7tHV_hbjyb579lzm8SB6-55" value="- tempControlled: boolean" style="text;html=1;strokeColor=#9673a6;fillColor=#e1d5e7;align=left;verticalAlign=top;spacingLeft=4;spacingRight=4;whiteSpace=wrap;overflow=hidden;rotatable=0;points=[[0,0.5],[1,0.5]];portConstraint=eastwest;labelBackgroundColor=none;" parent="7tHV_hbjyb579lzm8SB6-51" vertex="1">
          <mxGeometry y="104" width="420" height="26" as="geometry" />
        </mxCell>
        <mxCell id="7tHV_hbjyb579lzm8SB6-57" value="- realSpeed&lt;span style=&quot;background-color: initial;&quot;&gt;: int (0-100)&lt;/span&gt;" style="text;html=1;strokeColor=#9673a6;fillColor=#e1d5e7;align=left;verticalAlign=top;spacingLeft=4;spacingRight=4;whiteSpace=wrap;overflow=hidden;rotatable=0;points=[[0,0.5],[1,0.5]];portConstraint=eastwest;labelBackgroundColor=none;" parent="7tHV_hbjyb579lzm8SB6-51" vertex="1">
          <mxGeometry y="130" width="420" height="26" as="geometry" />
        </mxCell>
        <mxCell id="7tHV_hbjyb579lzm8SB6-58" value="- realOffset: int" style="text;html=1;strokeColor=#9673a6;fillColor=#e1d5e7;align=left;verticalAlign=top;spacingLeft=4;spacingRight=4;whiteSpace=wrap;overflow=hidden;rotatable=0;points=[[0,0.5],[1,0.5]];portConstraint=eastwest;labelBackgroundColor=none;" parent="7tHV_hbjyb579lzm8SB6-51" vertex="1">
          <mxGeometry y="156" width="420" height="26" as="geometry" />
        </mxCell>
        <mxCell id="7tHV_hbjyb579lzm8SB6-59" value="- realSpinning&lt;span style=&quot;background-color: initial;&quot;&gt;: boolean&lt;/span&gt;" style="text;html=1;strokeColor=#9673a6;fillColor=#e1d5e7;align=left;verticalAlign=top;spacingLeft=4;spacingRight=4;whiteSpace=wrap;overflow=hidden;rotatable=0;points=[[0,0.5],[1,0.5]];portConstraint=eastwest;labelBackgroundColor=none;" parent="7tHV_hbjyb579lzm8SB6-51" vertex="1">
          <mxGeometry y="182" width="420" height="26" as="geometry" />
        </mxCell>
        <mxCell id="7tHV_hbjyb579lzm8SB6-61" value="" style="line;html=1;strokeWidth=1;fillColor=none;align=left;verticalAlign=middle;spacingTop=-1;spacingLeft=3;spacingRight=3;rotatable=0;labelPosition=right;points=[];portConstraint=eastwest;labelBackgroundColor=none;strokeColor=#E07A5F;fontColor=#393C56;" parent="7tHV_hbjyb579lzm8SB6-51" vertex="1">
          <mxGeometry y="208" width="420" height="32" as="geometry" />
        </mxCell>
        <mxCell id="7tHV_hbjyb579lzm8SB6-62" value="+Fan(int speed, int offset, boolean spinning, boolean tempControlled&lt;span style=&quot;background-color: initial;&quot;&gt;) (getting info from arduino)&lt;/span&gt;" style="text;html=1;strokeColor=#9673a6;fillColor=#e1d5e7;align=left;verticalAlign=top;spacingLeft=4;spacingRight=4;whiteSpace=wrap;overflow=hidden;rotatable=0;points=[[0,0.5],[1,0.5]];portConstraint=eastwest;labelBackgroundColor=none;" parent="7tHV_hbjyb579lzm8SB6-51" vertex="1">
          <mxGeometry y="240" width="420" height="42" as="geometry" />
        </mxCell>
        <mxCell id="7tHV_hbjyb579lzm8SB6-63" value="+ setSpeed() : void" style="text;html=1;strokeColor=#9673a6;fillColor=#e1d5e7;align=left;verticalAlign=top;spacingLeft=4;spacingRight=4;whiteSpace=wrap;overflow=hidden;rotatable=0;points=[[0,0.5],[1,0.5]];portConstraint=eastwest;labelBackgroundColor=none;" parent="7tHV_hbjyb579lzm8SB6-51" vertex="1">
          <mxGeometry y="282" width="420" height="26" as="geometry" />
        </mxCell>
        <mxCell id="Xntf5tJK9PxHKMnyWvq5-12" value="+ setOffset() : void" style="text;html=1;strokeColor=#9673a6;fillColor=#e1d5e7;align=left;verticalAlign=top;spacingLeft=4;spacingRight=4;whiteSpace=wrap;overflow=hidden;rotatable=0;points=[[0,0.5],[1,0.5]];portConstraint=eastwest;labelBackgroundColor=none;" parent="7tHV_hbjyb579lzm8SB6-51" vertex="1">
          <mxGeometry y="308" width="420" height="26" as="geometry" />
        </mxCell>
        <mxCell id="7tHV_hbjyb579lzm8SB6-64" value="+ setSpinning(): void" style="text;html=1;strokeColor=#9673a6;fillColor=#e1d5e7;align=left;verticalAlign=top;spacingLeft=4;spacingRight=4;whiteSpace=wrap;overflow=hidden;rotatable=0;points=[[0,0.5],[1,0.5]];portConstraint=eastwest;labelBackgroundColor=none;" parent="7tHV_hbjyb579lzm8SB6-51" vertex="1">
          <mxGeometry y="334" width="420" height="26" as="geometry" />
        </mxCell>
        <mxCell id="7tHV_hbjyb579lzm8SB6-66" value="+ setTempControlled()&lt;span style=&quot;background-color: initial;&quot;&gt;: void&lt;/span&gt;" style="text;html=1;strokeColor=#9673a6;fillColor=#e1d5e7;align=left;verticalAlign=top;spacingLeft=4;spacingRight=4;whiteSpace=wrap;overflow=hidden;rotatable=0;points=[[0,0.5],[1,0.5]];portConstraint=eastwest;labelBackgroundColor=none;" parent="7tHV_hbjyb579lzm8SB6-51" vertex="1">
          <mxGeometry y="360" width="420" height="32" as="geometry" />
        </mxCell>
        <mxCell id="Xntf5tJK9PxHKMnyWvq5-13" value="+ setRealSpeed() : void" style="text;html=1;strokeColor=#9673a6;fillColor=#e1d5e7;align=left;verticalAlign=top;spacingLeft=4;spacingRight=4;whiteSpace=wrap;overflow=hidden;rotatable=0;points=[[0,0.5],[1,0.5]];portConstraint=eastwest;labelBackgroundColor=none;" parent="7tHV_hbjyb579lzm8SB6-51" vertex="1">
          <mxGeometry y="392" width="420" height="26" as="geometry" />
        </mxCell>
        <mxCell id="Xntf5tJK9PxHKMnyWvq5-14" value="+ setRealOffset() : void" style="text;html=1;strokeColor=#9673a6;fillColor=#e1d5e7;align=left;verticalAlign=top;spacingLeft=4;spacingRight=4;whiteSpace=wrap;overflow=hidden;rotatable=0;points=[[0,0.5],[1,0.5]];portConstraint=eastwest;labelBackgroundColor=none;" parent="7tHV_hbjyb579lzm8SB6-51" vertex="1">
          <mxGeometry y="418" width="420" height="26" as="geometry" />
        </mxCell>
        <mxCell id="Xntf5tJK9PxHKMnyWvq5-15" value="+ setRealSpinning(): void" style="text;html=1;strokeColor=#9673a6;fillColor=#e1d5e7;align=left;verticalAlign=top;spacingLeft=4;spacingRight=4;whiteSpace=wrap;overflow=hidden;rotatable=0;points=[[0,0.5],[1,0.5]];portConstraint=eastwest;labelBackgroundColor=none;" parent="7tHV_hbjyb579lzm8SB6-51" vertex="1">
          <mxGeometry y="444" width="420" height="26" as="geometry" />
        </mxCell>
        <mxCell id="Xntf5tJK9PxHKMnyWvq5-16" value="+ setRealTempControlled()&lt;span style=&quot;background-color: initial;&quot;&gt;: void&lt;/span&gt;" style="text;html=1;strokeColor=#9673a6;fillColor=#e1d5e7;align=left;verticalAlign=top;spacingLeft=4;spacingRight=4;whiteSpace=wrap;overflow=hidden;rotatable=0;points=[[0,0.5],[1,0.5]];portConstraint=eastwest;labelBackgroundColor=none;" parent="7tHV_hbjyb579lzm8SB6-51" vertex="1">
          <mxGeometry y="470" width="420" height="32" as="geometry" />
        </mxCell>
        <mxCell id="Xntf5tJK9PxHKMnyWvq5-17" value="" style="line;html=1;strokeWidth=1;fillColor=none;align=left;verticalAlign=middle;spacingTop=-1;spacingLeft=3;spacingRight=3;rotatable=0;labelPosition=right;points=[];portConstraint=eastwest;labelBackgroundColor=none;strokeColor=#E07A5F;fontColor=#393C56;dashed=1;dashPattern=8 8;" parent="7tHV_hbjyb579lzm8SB6-51" vertex="1">
          <mxGeometry y="502" width="420" height="8" as="geometry" />
        </mxCell>
        <mxCell id="Xntf5tJK9PxHKMnyWvq5-18" value="+ Getters to all" style="text;html=1;strokeColor=#9673a6;fillColor=#e1d5e7;align=left;verticalAlign=top;spacingLeft=4;spacingRight=4;whiteSpace=wrap;overflow=hidden;rotatable=0;points=[[0,0.5],[1,0.5]];portConstraint=eastwest;labelBackgroundColor=none;" parent="7tHV_hbjyb579lzm8SB6-51" vertex="1">
          <mxGeometry y="510" width="420" height="32" as="geometry" />
        </mxCell>
        <mxCell id="7tHV_hbjyb579lzm8SB6-69" style="edgeStyle=orthogonalEdgeStyle;rounded=0;orthogonalLoop=1;jettySize=auto;html=1;shape=arrow;strokeWidth=2;exitX=-0.01;exitY=0.962;exitDx=0;exitDy=0;exitPerimeter=0;entryX=0.576;entryY=-0.004;entryDx=0;entryDy=0;entryPerimeter=0;" parent="1" source="p_RgDi4whr3n8FJ-VYJ--64" target="7tHV_hbjyb579lzm8SB6-86" edge="1">
          <mxGeometry relative="1" as="geometry">
            <mxPoint x="-1835" y="-360" as="targetPoint" />
            <Array as="points">
              <mxPoint x="-1868" y="-456" />
              <mxPoint x="-1868" y="-468" />
              <mxPoint x="-1900" y="-468" />
              <mxPoint x="-1900" y="-415" />
              <mxPoint x="-1930" y="-415" />
              <mxPoint x="-1930" y="-361" />
            </Array>
          </mxGeometry>
        </mxCell>
        <mxCell id="7tHV_hbjyb579lzm8SB6-70" value="&lt;font face=&quot;Verdana&quot;&gt;&lt;b&gt;enum TransmitType&lt;/b&gt;&lt;/font&gt;" style="swimlane;fontStyle=0;childLayout=stackLayout;horizontal=1;startSize=30;horizontalStack=0;resizeParent=1;resizeParentMax=0;resizeLast=0;collapsible=1;marginBottom=0;whiteSpace=wrap;html=1;labelBackgroundColor=none;fillColor=#F2CC8F;strokeColor=#E07A5F;fontColor=#393C56;" parent="1" vertex="1">
          <mxGeometry x="-1870" y="-665" width="210" height="210" as="geometry" />
        </mxCell>
        <mxCell id="7tHV_hbjyb579lzm8SB6-71" value="START" style="text;strokeColor=#9673a6;fillColor=#e1d5e7;align=left;verticalAlign=middle;spacingLeft=4;spacingRight=4;overflow=hidden;points=[[0,0.5],[1,0.5]];portConstraint=eastwest;rotatable=0;whiteSpace=wrap;html=1;labelBackgroundColor=none;" parent="7tHV_hbjyb579lzm8SB6-70" vertex="1">
          <mxGeometry y="30" width="210" height="30" as="geometry" />
        </mxCell>
        <mxCell id="7tHV_hbjyb579lzm8SB6-72" value="STOP" style="text;strokeColor=#9673a6;fillColor=#e1d5e7;align=left;verticalAlign=middle;spacingLeft=4;spacingRight=4;overflow=hidden;points=[[0,0.5],[1,0.5]];portConstraint=eastwest;rotatable=0;whiteSpace=wrap;html=1;labelBackgroundColor=none;" parent="7tHV_hbjyb579lzm8SB6-70" vertex="1">
          <mxGeometry y="60" width="210" height="30" as="geometry" />
        </mxCell>
        <mxCell id="7tHV_hbjyb579lzm8SB6-73" value="&lt;div&gt;&lt;span style=&quot;background-color: initial;&quot;&gt;SPEED&lt;/span&gt;&lt;br&gt;&lt;/div&gt;" style="text;strokeColor=#9673a6;fillColor=#e1d5e7;align=left;verticalAlign=middle;spacingLeft=4;spacingRight=4;overflow=hidden;points=[[0,0.5],[1,0.5]];portConstraint=eastwest;rotatable=0;whiteSpace=wrap;html=1;labelBackgroundColor=none;" parent="7tHV_hbjyb579lzm8SB6-70" vertex="1">
          <mxGeometry y="90" width="210" height="30" as="geometry" />
        </mxCell>
        <mxCell id="7tHV_hbjyb579lzm8SB6-74" value="TEMPRERATURE_CONTROL" style="text;strokeColor=#9673a6;fillColor=#e1d5e7;align=left;verticalAlign=middle;spacingLeft=4;spacingRight=4;overflow=hidden;points=[[0,0.5],[1,0.5]];portConstraint=eastwest;rotatable=0;whiteSpace=wrap;html=1;labelBackgroundColor=none;" parent="7tHV_hbjyb579lzm8SB6-70" vertex="1">
          <mxGeometry y="120" width="210" height="30" as="geometry" />
        </mxCell>
        <mxCell id="7tHV_hbjyb579lzm8SB6-75" value="OFFSET" style="text;strokeColor=#9673a6;fillColor=#e1d5e7;align=left;verticalAlign=middle;spacingLeft=4;spacingRight=4;overflow=hidden;points=[[0,0.5],[1,0.5]];portConstraint=eastwest;rotatable=0;whiteSpace=wrap;html=1;labelBackgroundColor=none;" parent="7tHV_hbjyb579lzm8SB6-70" vertex="1">
          <mxGeometry y="150" width="210" height="30" as="geometry" />
        </mxCell>
        <mxCell id="p_RgDi4whr3n8FJ-VYJ--64" value="getDataValue() : String" style="text;align=left;verticalAlign=middle;spacingLeft=4;spacingRight=4;overflow=hidden;points=[[0,0.5],[1,0.5]];portConstraint=eastwest;rotatable=0;whiteSpace=wrap;html=1;labelBackgroundColor=none;" parent="7tHV_hbjyb579lzm8SB6-70" vertex="1">
          <mxGeometry y="180" width="210" height="30" as="geometry" />
        </mxCell>
        <mxCell id="7tHV_hbjyb579lzm8SB6-86" value="&lt;div&gt;Writer (singleton)&lt;/div&gt;" style="swimlane;html=1;fontStyle=1;align=center;verticalAlign=top;childLayout=stackLayout;horizontal=1;startSize=26;horizontalStack=0;resizeParent=1;resizeLast=0;collapsible=1;marginBottom=0;swimlaneFillColor=#ffffff;rounded=0;shadow=0;comic=0;labelBackgroundColor=none;strokeWidth=1;fillColor=none;fontFamily=Verdana;fontSize=12;strokeColor=#E07A5F;fontColor=#393C56;" parent="1" vertex="1">
          <mxGeometry x="-2140" y="-360" width="360" height="258" as="geometry">
            <mxRectangle x="485" y="130" width="220" height="30" as="alternateBounds" />
          </mxGeometry>
        </mxCell>
        <mxCell id="p_RgDi4whr3n8FJ-VYJ--48" value="- wifiConnection : boolean" style="text;html=1;strokeColor=#9673a6;fillColor=#e1d5e7;align=left;verticalAlign=top;spacingLeft=4;spacingRight=4;whiteSpace=wrap;overflow=hidden;rotatable=0;points=[[0,0.5],[1,0.5]];portConstraint=eastwest;labelBackgroundColor=none;" parent="7tHV_hbjyb579lzm8SB6-86" vertex="1">
          <mxGeometry y="26" width="360" height="26" as="geometry" />
        </mxCell>
        <mxCell id="p_RgDi4whr3n8FJ-VYJ--49" value="- bluetoothConnection : boolean" style="text;html=1;strokeColor=#9673a6;fillColor=#e1d5e7;align=left;verticalAlign=top;spacingLeft=4;spacingRight=4;whiteSpace=wrap;overflow=hidden;rotatable=0;points=[[0,0.5],[1,0.5]];portConstraint=eastwest;labelBackgroundColor=none;" parent="7tHV_hbjyb579lzm8SB6-86" vertex="1">
          <mxGeometry y="52" width="360" height="26" as="geometry" />
        </mxCell>
        <mxCell id="p_RgDi4whr3n8FJ-VYJ--50" value="- serialConnection : boolean" style="text;html=1;strokeColor=#9673a6;fillColor=#e1d5e7;align=left;verticalAlign=top;spacingLeft=4;spacingRight=4;whiteSpace=wrap;overflow=hidden;rotatable=0;points=[[0,0.5],[1,0.5]];portConstraint=eastwest;labelBackgroundColor=none;" parent="7tHV_hbjyb579lzm8SB6-86" vertex="1">
          <mxGeometry y="78" width="360" height="26" as="geometry" />
        </mxCell>
        <mxCell id="7tHV_hbjyb579lzm8SB6-89" value="" style="line;html=1;strokeWidth=1;fillColor=none;align=left;verticalAlign=middle;spacingTop=-1;spacingLeft=3;spacingRight=3;rotatable=0;labelPosition=right;points=[];portConstraint=eastwest;labelBackgroundColor=none;strokeColor=#E07A5F;fontColor=#393C56;" parent="7tHV_hbjyb579lzm8SB6-86" vertex="1">
          <mxGeometry y="104" width="360" height="8" as="geometry" />
        </mxCell>
        <mxCell id="7tHV_hbjyb579lzm8SB6-91" value="+ write(enum messageType): void" style="text;html=1;strokeColor=#9673a6;fillColor=#e1d5e7;align=left;verticalAlign=top;spacingLeft=4;spacingRight=4;whiteSpace=wrap;overflow=hidden;rotatable=0;points=[[0,0.5],[1,0.5]];portConstraint=eastwest;labelBackgroundColor=none;" parent="7tHV_hbjyb579lzm8SB6-86" vertex="1">
          <mxGeometry y="112" width="360" height="26" as="geometry" />
        </mxCell>
        <mxCell id="p_RgDi4whr3n8FJ-VYJ--61" value="+ sendData(byte[] data): void" style="text;html=1;strokeColor=#9673a6;fillColor=#e1d5e7;align=left;verticalAlign=top;spacingLeft=4;spacingRight=4;whiteSpace=wrap;overflow=hidden;rotatable=0;points=[[0,0.5],[1,0.5]];portConstraint=eastwest;labelBackgroundColor=none;" parent="7tHV_hbjyb579lzm8SB6-86" vertex="1">
          <mxGeometry y="138" width="360" height="26" as="geometry" />
        </mxCell>
        <mxCell id="7tHV_hbjyb579lzm8SB6-92" value="+ write(enum messageType,Object dataObject): void&lt;div&gt;(this take anything and converts it to bytes[] before sending)&lt;/div&gt;" style="text;html=1;strokeColor=#9673a6;fillColor=#e1d5e7;align=left;verticalAlign=top;spacingLeft=4;spacingRight=4;whiteSpace=wrap;overflow=hidden;rotatable=0;points=[[0,0.5],[1,0.5]];portConstraint=eastwest;labelBackgroundColor=none;" parent="7tHV_hbjyb579lzm8SB6-86" vertex="1">
          <mxGeometry y="164" width="360" height="42" as="geometry" />
        </mxCell>
        <mxCell id="p_RgDi4whr3n8FJ-VYJ--13" value="+getInstance() : SerialWriter" style="text;html=1;strokeColor=#9673a6;fillColor=#e1d5e7;align=left;verticalAlign=top;spacingLeft=4;spacingRight=4;whiteSpace=wrap;overflow=hidden;rotatable=0;points=[[0,0.5],[1,0.5]];portConstraint=eastwest;labelBackgroundColor=none;" parent="7tHV_hbjyb579lzm8SB6-86" vertex="1">
          <mxGeometry y="206" width="360" height="26" as="geometry" />
        </mxCell>
        <mxCell id="7tHV_hbjyb579lzm8SB6-94" style="edgeStyle=orthogonalEdgeStyle;rounded=0;orthogonalLoop=1;jettySize=auto;html=1;entryX=0.5;entryY=0;entryDx=0;entryDy=0;shape=arrow;strokeWidth=2;" parent="1" source="7tHV_hbjyb579lzm8SB6-95" target="7tHV_hbjyb579lzm8SB6-104" edge="1">
          <mxGeometry relative="1" as="geometry" />
        </mxCell>
        <mxCell id="7tHV_hbjyb579lzm8SB6-95" value="&lt;font face=&quot;Verdana&quot;&gt;&lt;b&gt;enum ReceiveType&lt;/b&gt;&lt;/font&gt;" style="swimlane;fontStyle=0;childLayout=stackLayout;horizontal=1;startSize=30;horizontalStack=0;resizeParent=1;resizeParentMax=0;resizeLast=0;collapsible=1;marginBottom=0;whiteSpace=wrap;html=1;labelBackgroundColor=none;fillColor=#F2CC8F;strokeColor=#E07A5F;fontColor=#393C56;" parent="1" vertex="1">
          <mxGeometry x="-600" y="-665" width="210" height="240" as="geometry" />
        </mxCell>
        <mxCell id="7tHV_hbjyb579lzm8SB6-96" value="SPEED_VALUE" style="text;strokeColor=none;fillColor=none;align=left;verticalAlign=middle;spacingLeft=4;spacingRight=4;overflow=hidden;points=[[0,0.5],[1,0.5]];portConstraint=eastwest;rotatable=0;whiteSpace=wrap;html=1;labelBackgroundColor=none;fontColor=#393C56;" parent="7tHV_hbjyb579lzm8SB6-95" vertex="1">
          <mxGeometry y="30" width="210" height="30" as="geometry" />
        </mxCell>
        <mxCell id="7tHV_hbjyb579lzm8SB6-97" value="SPINNING_VALUE" style="text;strokeColor=none;fillColor=none;align=left;verticalAlign=middle;spacingLeft=4;spacingRight=4;overflow=hidden;points=[[0,0.5],[1,0.5]];portConstraint=eastwest;rotatable=0;whiteSpace=wrap;html=1;labelBackgroundColor=none;fontColor=#393C56;" parent="7tHV_hbjyb579lzm8SB6-95" vertex="1">
          <mxGeometry y="60" width="210" height="30" as="geometry" />
        </mxCell>
        <mxCell id="7tHV_hbjyb579lzm8SB6-98" value="PWM_VALUE" style="text;strokeColor=none;fillColor=none;align=left;verticalAlign=middle;spacingLeft=4;spacingRight=4;overflow=hidden;points=[[0,0.5],[1,0.5]];portConstraint=eastwest;rotatable=0;whiteSpace=wrap;html=1;labelBackgroundColor=none;fontColor=#393C56;" parent="7tHV_hbjyb579lzm8SB6-95" vertex="1">
          <mxGeometry y="90" width="210" height="30" as="geometry" />
        </mxCell>
        <mxCell id="7tHV_hbjyb579lzm8SB6-99" value="TEMPERATURE_VALUE" style="text;strokeColor=none;fillColor=none;align=left;verticalAlign=middle;spacingLeft=4;spacingRight=4;overflow=hidden;points=[[0,0.5],[1,0.5]];portConstraint=eastwest;rotatable=0;whiteSpace=wrap;html=1;labelBackgroundColor=none;fontColor=#393C56;" parent="7tHV_hbjyb579lzm8SB6-95" vertex="1">
          <mxGeometry y="120" width="210" height="30" as="geometry" />
        </mxCell>
        <mxCell id="7tHV_hbjyb579lzm8SB6-100" value="OFFSET_VALUE" style="text;strokeColor=none;fillColor=none;align=left;verticalAlign=middle;spacingLeft=4;spacingRight=4;overflow=hidden;points=[[0,0.5],[1,0.5]];portConstraint=eastwest;rotatable=0;whiteSpace=wrap;html=1;labelBackgroundColor=none;fontColor=#393C56;" parent="7tHV_hbjyb579lzm8SB6-95" vertex="1">
          <mxGeometry y="150" width="210" height="30" as="geometry" />
        </mxCell>
        <mxCell id="7tHV_hbjyb579lzm8SB6-101" value="IDLE_TIME" style="text;strokeColor=none;fillColor=none;align=left;verticalAlign=middle;spacingLeft=4;spacingRight=4;overflow=hidden;points=[[0,0.5],[1,0.5]];portConstraint=eastwest;rotatable=0;whiteSpace=wrap;html=1;labelBackgroundColor=none;fontColor=#393C56;" parent="7tHV_hbjyb579lzm8SB6-95" vertex="1">
          <mxGeometry y="180" width="210" height="30" as="geometry" />
        </mxCell>
        <mxCell id="7tHV_hbjyb579lzm8SB6-102" value="DEVICE_ONTIME" style="text;strokeColor=none;fillColor=none;align=left;verticalAlign=middle;spacingLeft=4;spacingRight=4;overflow=hidden;points=[[0,0.5],[1,0.5]];portConstraint=eastwest;rotatable=0;whiteSpace=wrap;html=1;labelBackgroundColor=none;fontColor=#393C56;" parent="7tHV_hbjyb579lzm8SB6-95" vertex="1">
          <mxGeometry y="210" width="210" height="30" as="geometry" />
        </mxCell>
        <mxCell id="7tHV_hbjyb579lzm8SB6-103" style="edgeStyle=orthogonalEdgeStyle;rounded=0;orthogonalLoop=1;jettySize=auto;html=1;entryX=1;entryY=0.5;entryDx=0;entryDy=0;curved=1;strokeWidth=2;endSize=13;endArrow=diamondThin;endFill=1;" parent="1" source="7tHV_hbjyb579lzm8SB6-104" target="7tHV_hbjyb579lzm8SB6-63" edge="1">
          <mxGeometry relative="1" as="geometry">
            <Array as="points">
              <mxPoint x="-810" y="-205" />
              <mxPoint x="-810" y="-655" />
            </Array>
          </mxGeometry>
        </mxCell>
        <mxCell id="7tHV_hbjyb579lzm8SB6-104" value="Reader (singleton) (runned in thread)" style="swimlane;html=1;fontStyle=0;align=center;verticalAlign=top;childLayout=stackLayout;horizontal=1;startSize=26;horizontalStack=0;resizeParent=1;resizeLast=0;collapsible=1;marginBottom=0;swimlaneFillColor=#ffffff;rounded=0;shadow=0;comic=0;labelBackgroundColor=none;strokeWidth=1;fillColor=none;fontFamily=Verdana;fontSize=12;strokeColor=#E07A5F;fontColor=#393C56;" parent="1" vertex="1">
          <mxGeometry x="-650" y="-315" width="310" height="220" as="geometry" />
        </mxCell>
        <mxCell id="7tHV_hbjyb579lzm8SB6-105" value="- ArrayList&amp;lt;Object&amp;gt; bytesReceived: Arraylist&amp;lt;Object&amp;gt;" style="text;html=1;strokeColor=none;fillColor=none;align=left;verticalAlign=top;spacingLeft=4;spacingRight=4;whiteSpace=wrap;overflow=hidden;rotatable=0;points=[[0,0.5],[1,0.5]];portConstraint=eastwest;labelBackgroundColor=none;fontColor=#393C56;" parent="7tHV_hbjyb579lzm8SB6-104" vertex="1">
          <mxGeometry y="26" width="310" height="26" as="geometry" />
        </mxCell>
        <mxCell id="7tHV_hbjyb579lzm8SB6-106" value="- messageType: enum RXMessageType" style="text;html=1;strokeColor=none;fillColor=none;align=left;verticalAlign=top;spacingLeft=4;spacingRight=4;whiteSpace=wrap;overflow=hidden;rotatable=0;points=[[0,0.5],[1,0.5]];portConstraint=eastwest;labelBackgroundColor=none;fontColor=#393C56;" parent="7tHV_hbjyb579lzm8SB6-104" vertex="1">
          <mxGeometry y="52" width="310" height="26" as="geometry" />
        </mxCell>
        <mxCell id="7tHV_hbjyb579lzm8SB6-107" value="- messageValue: String (emulated int or boolean)" style="text;html=1;strokeColor=none;fillColor=none;align=left;verticalAlign=top;spacingLeft=4;spacingRight=4;whiteSpace=wrap;overflow=hidden;rotatable=0;points=[[0,0.5],[1,0.5]];portConstraint=eastwest;labelBackgroundColor=none;fontColor=#393C56;" parent="7tHV_hbjyb579lzm8SB6-104" vertex="1">
          <mxGeometry y="78" width="310" height="26" as="geometry" />
        </mxCell>
        <mxCell id="7tHV_hbjyb579lzm8SB6-108" value="" style="line;html=1;strokeWidth=1;fillColor=none;align=left;verticalAlign=middle;spacingTop=-1;spacingLeft=3;spacingRight=3;rotatable=0;labelPosition=right;points=[];portConstraint=eastwest;labelBackgroundColor=none;strokeColor=#E07A5F;fontColor=#393C56;" parent="7tHV_hbjyb579lzm8SB6-104" vertex="1">
          <mxGeometry y="104" width="310" height="8" as="geometry" />
        </mxCell>
        <mxCell id="7tHV_hbjyb579lzm8SB6-109" value="- informGUI(RXMessageType messageType, int messageValue): void &lt;span style=&quot;white-space: pre;&quot;&gt;&#x9;&lt;/span&gt;(&lt;u&gt;this informs the according message to GUIcontrollers&lt;/u&gt;)" style="text;html=1;strokeColor=none;fillColor=none;align=left;verticalAlign=top;spacingLeft=4;spacingRight=4;whiteSpace=wrap;overflow=hidden;rotatable=0;points=[[0,0.5],[1,0.5]];portConstraint=eastwest;labelBackgroundColor=none;fontColor=#393C56;" parent="7tHV_hbjyb579lzm8SB6-104" vertex="1">
          <mxGeometry y="112" width="310" height="60" as="geometry" />
        </mxCell>
        <mxCell id="7tHV_hbjyb579lzm8SB6-110" style="edgeStyle=orthogonalEdgeStyle;rounded=0;orthogonalLoop=1;jettySize=auto;html=1;entryX=1;entryY=0.5;entryDx=0;entryDy=0;exitX=1;exitY=0.5;exitDx=0;exitDy=0;strokeWidth=2;" parent="7tHV_hbjyb579lzm8SB6-104" source="7tHV_hbjyb579lzm8SB6-111" target="7tHV_hbjyb579lzm8SB6-109" edge="1">
          <mxGeometry relative="1" as="geometry">
            <Array as="points">
              <mxPoint x="350" y="196" />
              <mxPoint x="350" y="142" />
            </Array>
          </mxGeometry>
        </mxCell>
        <mxCell id="7tHV_hbjyb579lzm8SB6-111" value="- processMessage(bytesReceived): void (&lt;u&gt;this sets the messageType and value and then asks to informGUI&lt;/u&gt;)" style="text;html=1;strokeColor=none;fillColor=none;align=left;verticalAlign=top;spacingLeft=4;spacingRight=4;whiteSpace=wrap;overflow=hidden;rotatable=0;points=[[0,0.5],[1,0.5]];portConstraint=eastwest;labelBackgroundColor=none;fontColor=#393C56;" parent="7tHV_hbjyb579lzm8SB6-104" vertex="1">
          <mxGeometry y="172" width="310" height="48" as="geometry" />
        </mxCell>
        <mxCell id="7tHV_hbjyb579lzm8SB6-113" style="edgeStyle=orthogonalEdgeStyle;rounded=0;orthogonalLoop=1;jettySize=auto;html=1;shape=arrow;strokeWidth=2;" parent="1" source="7tHV_hbjyb579lzm8SB6-27" target="7tHV_hbjyb579lzm8SB6-11" edge="1">
          <mxGeometry relative="1" as="geometry">
            <mxPoint x="-570" y="30" as="sourcePoint" />
            <mxPoint x="-570" y="140" as="targetPoint" />
          </mxGeometry>
        </mxCell>
        <mxCell id="7tHV_hbjyb579lzm8SB6-114" style="edgeStyle=orthogonalEdgeStyle;rounded=0;orthogonalLoop=1;jettySize=auto;html=1;strokeWidth=2;" parent="1" source="7tHV_hbjyb579lzm8SB6-9" target="7tHV_hbjyb579lzm8SB6-111" edge="1">
          <mxGeometry relative="1" as="geometry" />
        </mxCell>
        <mxCell id="7tHV_hbjyb579lzm8SB6-115" value="&lt;span style=&quot;background-color: rgb(209, 148, 148);&quot;&gt;Labels will &quot;snap&quot; a color or flicker a bit&lt;/span&gt;&lt;div&gt;&lt;span style=&quot;background-color: rgb(209, 148, 148);&quot;&gt;&amp;nbsp;when the adjusted value matches the real value&lt;/span&gt;&lt;/div&gt;" style="text;html=1;align=center;verticalAlign=middle;resizable=0;points=[];autosize=1;strokeColor=none;fillColor=none;" parent="1" vertex="1">
          <mxGeometry x="-590" y="-1070" width="280" height="40" as="geometry" />
        </mxCell>
        <mxCell id="7tHV_hbjyb579lzm8SB6-116" value="&lt;span style=&quot;background-color: rgb(209, 148, 148);&quot;&gt;ALL GUI MEMBERS HAVE A &lt;u&gt;CUSTOM&lt;/u&gt; COLOR ASSIGNED TO THEM&lt;/span&gt;&lt;div&gt;&lt;span style=&quot;background-color: rgb(209, 148, 148);&quot;&gt;THOSE COLORS CAN BE CHANGED WITH A TEMPLATE&lt;/span&gt;&lt;/div&gt;&lt;div&gt;&lt;span style=&quot;background-color: rgb(209, 148, 148);&quot;&gt;&lt;br&gt;&lt;/span&gt;&lt;/div&gt;&lt;div&gt;&lt;span style=&quot;background-color: rgb(209, 148, 148);&quot;&gt;Label.setcolor(fanwiCustomColor1)&lt;/span&gt;&lt;/div&gt;&lt;div&gt;&lt;span style=&quot;background-color: rgb(209, 148, 148);&quot;&gt;&lt;br&gt;&lt;/span&gt;&lt;/div&gt;&lt;div&gt;&lt;span style=&quot;background-color: rgb(209, 148, 148);&quot;&gt;load customcolor palette 1&lt;/span&gt;&lt;/div&gt;" style="text;html=1;align=center;verticalAlign=middle;resizable=0;points=[];autosize=1;strokeColor=none;fillColor=none;" parent="1" vertex="1">
          <mxGeometry x="-960" y="-1300" width="400" height="100" as="geometry" />
        </mxCell>
        <mxCell id="yg0Ud3I_lZr1JjTmaWrN-17" value="&lt;div&gt;ExceptionHandler&lt;/div&gt;" style="swimlane;html=1;fontStyle=1;align=center;verticalAlign=top;childLayout=stackLayout;horizontal=1;startSize=26;horizontalStack=0;resizeParent=1;resizeLast=0;collapsible=1;marginBottom=0;swimlaneFillColor=#ffffff;rounded=0;shadow=0;comic=0;labelBackgroundColor=none;strokeWidth=1;fillColor=none;fontFamily=Verdana;fontSize=12;strokeColor=#E07A5F;fontColor=#393C56;" parent="1" vertex="1">
          <mxGeometry x="-2130" y="290" width="300" height="190" as="geometry">
            <mxRectangle x="485" y="130" width="220" height="30" as="alternateBounds" />
          </mxGeometry>
        </mxCell>
        <mxCell id="yg0Ud3I_lZr1JjTmaWrN-22" value="- errorCount : int" style="text;html=1;strokeColor=none;fillColor=none;align=left;verticalAlign=top;spacingLeft=4;spacingRight=4;whiteSpace=wrap;overflow=hidden;rotatable=0;points=[[0,0.5],[1,0.5]];portConstraint=eastwest;labelBackgroundColor=none;fontColor=#393C56;" parent="yg0Ud3I_lZr1JjTmaWrN-17" vertex="1">
          <mxGeometry y="26" width="300" height="26" as="geometry" />
        </mxCell>
        <mxCell id="yg0Ud3I_lZr1JjTmaWrN-20" value="" style="line;html=1;strokeWidth=1;fillColor=none;align=left;verticalAlign=middle;spacingTop=-1;spacingLeft=3;spacingRight=3;rotatable=0;labelPosition=right;points=[];portConstraint=eastwest;labelBackgroundColor=none;strokeColor=#E07A5F;fontColor=#393C56;" parent="yg0Ud3I_lZr1JjTmaWrN-17" vertex="1">
          <mxGeometry y="52" width="300" height="8" as="geometry" />
        </mxCell>
        <mxCell id="yg0Ud3I_lZr1JjTmaWrN-25" value="- getErrorCount() : int" style="text;html=1;strokeColor=none;fillColor=none;align=left;verticalAlign=top;spacingLeft=4;spacingRight=4;whiteSpace=wrap;overflow=hidden;rotatable=0;points=[[0,0.5],[1,0.5]];portConstraint=eastwest;labelBackgroundColor=none;fontColor=#393C56;" parent="yg0Ud3I_lZr1JjTmaWrN-17" vertex="1">
          <mxGeometry y="60" width="300" height="26" as="geometry" />
        </mxCell>
        <mxCell id="yg0Ud3I_lZr1JjTmaWrN-26" value="+ handle(enum ErrorType)" style="text;html=1;strokeColor=none;fillColor=none;align=left;verticalAlign=top;spacingLeft=4;spacingRight=4;whiteSpace=wrap;overflow=hidden;rotatable=0;points=[[0,0.5],[1,0.5]];portConstraint=eastwest;labelBackgroundColor=none;fontColor=#393C56;" parent="yg0Ud3I_lZr1JjTmaWrN-17" vertex="1">
          <mxGeometry y="86" width="300" height="26" as="geometry" />
        </mxCell>
        <mxCell id="yg0Ud3I_lZr1JjTmaWrN-27" value="&lt;font face=&quot;Verdana&quot;&gt;&lt;b&gt;enum ExceptionType&lt;/b&gt;&lt;/font&gt;" style="swimlane;fontStyle=0;childLayout=stackLayout;horizontal=1;startSize=30;horizontalStack=0;resizeParent=1;resizeParentMax=0;resizeLast=0;collapsible=1;marginBottom=0;whiteSpace=wrap;html=1;labelBackgroundColor=none;fillColor=#F2CC8F;strokeColor=#E07A5F;fontColor=#393C56;" parent="1" vertex="1">
          <mxGeometry x="-2390" y="290" width="210" height="90" as="geometry" />
        </mxCell>
        <mxCell id="yg0Ud3I_lZr1JjTmaWrN-28" value="FXML_EXCEPTION" style="text;strokeColor=none;fillColor=none;align=left;verticalAlign=middle;spacingLeft=4;spacingRight=4;overflow=hidden;points=[[0,0.5],[1,0.5]];portConstraint=eastwest;rotatable=0;whiteSpace=wrap;html=1;labelBackgroundColor=none;fontColor=#393C56;" parent="yg0Ud3I_lZr1JjTmaWrN-27" vertex="1">
          <mxGeometry y="30" width="210" height="30" as="geometry" />
        </mxCell>
        <mxCell id="yg0Ud3I_lZr1JjTmaWrN-43" value="UNMATCHING_VALUES" style="text;strokeColor=none;fillColor=none;align=left;verticalAlign=middle;spacingLeft=4;spacingRight=4;overflow=hidden;points=[[0,0.5],[1,0.5]];portConstraint=eastwest;rotatable=0;whiteSpace=wrap;html=1;labelBackgroundColor=none;fontColor=#393C56;" parent="yg0Ud3I_lZr1JjTmaWrN-27" vertex="1">
          <mxGeometry y="60" width="210" height="30" as="geometry" />
        </mxCell>
        <mxCell id="yg0Ud3I_lZr1JjTmaWrN-45" style="edgeStyle=orthogonalEdgeStyle;rounded=0;orthogonalLoop=1;jettySize=auto;html=1;" parent="1" source="yg0Ud3I_lZr1JjTmaWrN-44" target="yg0Ud3I_lZr1JjTmaWrN-43" edge="1">
          <mxGeometry relative="1" as="geometry" />
        </mxCell>
        <mxCell id="yg0Ud3I_lZr1JjTmaWrN-44" value="This is for the exception&lt;div&gt;that the arduino and software&lt;/div&gt;&lt;div&gt;dont match values together&lt;/div&gt;&lt;div&gt;after say 15 seconds&lt;/div&gt;" style="text;html=1;align=center;verticalAlign=middle;resizable=0;points=[];autosize=1;strokeColor=none;fillColor=none;" parent="1" vertex="1">
          <mxGeometry x="-2620" y="310" width="180" height="70" as="geometry" />
        </mxCell>
        <mxCell id="yg0Ud3I_lZr1JjTmaWrN-46" value="" style="shape=flexArrow;endArrow=classic;html=1;rounded=0;endSize=10;startSize=14;strokeWidth=7;" parent="1" edge="1">
          <mxGeometry width="50" height="50" relative="1" as="geometry">
            <mxPoint x="-1820" y="120" as="sourcePoint" />
            <mxPoint x="-1920" y="210" as="targetPoint" />
          </mxGeometry>
        </mxCell>
        <mxCell id="yg0Ud3I_lZr1JjTmaWrN-47" value="" style="shape=flexArrow;endArrow=classic;html=1;rounded=0;endSize=10;startSize=14;strokeWidth=7;" parent="1" edge="1">
          <mxGeometry width="50" height="50" relative="1" as="geometry">
            <mxPoint x="-870" y="90" as="sourcePoint" />
            <mxPoint x="-770" y="190" as="targetPoint" />
          </mxGeometry>
        </mxCell>
        <mxCell id="Xntf5tJK9PxHKMnyWvq5-9" value="&lt;font style=&quot;font-size: 30px;&quot;&gt;&lt;b&gt;This color means&amp;nbsp;&lt;/b&gt;&lt;/font&gt;&lt;div style=&quot;font-size: 30px;&quot;&gt;&lt;font style=&quot;font-size: 30px;&quot;&gt;&lt;b&gt;that it is implemented&lt;/b&gt;&lt;/font&gt;&lt;/div&gt;" style="whiteSpace=wrap;html=1;fillColor=#e1d5e7;strokeColor=#9673a6;" parent="1" vertex="1">
          <mxGeometry x="-2000" y="-1560" width="420" height="210" as="geometry" />
        </mxCell>
        <mxCell id="Xntf5tJK9PxHKMnyWvq5-11" value="&lt;font style=&quot;font-size: 29px;&quot;&gt;GUI&lt;/font&gt;" style="swimlane;whiteSpace=wrap;html=1;startSize=40;fillColor=#dae8fc;strokeColor=#6c8ebf;" parent="1" vertex="1">
          <mxGeometry x="-3730" y="-1110" width="1270" height="990" as="geometry" />
        </mxCell>
        <mxCell id="Xntf5tJK9PxHKMnyWvq5-1" value="&lt;div&gt;FanGridPaneController&lt;/div&gt;" style="swimlane;html=1;fontStyle=1;align=center;verticalAlign=top;childLayout=stackLayout;horizontal=1;startSize=26;horizontalStack=0;resizeParent=1;resizeLast=0;collapsible=1;marginBottom=0;swimlaneFillColor=#ffffff;rounded=0;shadow=0;comic=0;labelBackgroundColor=none;strokeWidth=1;fillColor=none;fontFamily=Verdana;fontSize=12;strokeColor=#E07A5F;fontColor=#393C56;" parent="Xntf5tJK9PxHKMnyWvq5-11" vertex="1">
          <mxGeometry x="50" y="124" width="300" height="190" as="geometry">
            <mxRectangle x="485" y="130" width="220" height="30" as="alternateBounds" />
          </mxGeometry>
        </mxCell>
        <mxCell id="p_RgDi4whr3n8FJ-VYJ--2" value="something" style="text;html=1;strokeColor=#9673a6;fillColor=#e1d5e7;align=left;verticalAlign=top;spacingLeft=4;spacingRight=4;whiteSpace=wrap;overflow=hidden;rotatable=0;points=[[0,0.5],[1,0.5]];portConstraint=eastwest;labelBackgroundColor=none;" parent="Xntf5tJK9PxHKMnyWvq5-1" vertex="1">
          <mxGeometry y="26" width="300" height="26" as="geometry" />
        </mxCell>
        <mxCell id="Xntf5tJK9PxHKMnyWvq5-4" value="" style="line;html=1;strokeWidth=1;fillColor=none;align=left;verticalAlign=middle;spacingTop=-1;spacingLeft=3;spacingRight=3;rotatable=0;labelPosition=right;points=[];portConstraint=eastwest;labelBackgroundColor=none;strokeColor=#E07A5F;fontColor=#393C56;" parent="Xntf5tJK9PxHKMnyWvq5-1" vertex="1">
          <mxGeometry y="52" width="300" height="8" as="geometry" />
        </mxCell>
        <mxCell id="p_RgDi4whr3n8FJ-VYJ--3" value="+ initialize(): void (JAVAFX INITIALIZE)" style="text;html=1;strokeColor=#9673a6;fillColor=#e1d5e7;align=left;verticalAlign=top;spacingLeft=4;spacingRight=4;whiteSpace=wrap;overflow=hidden;rotatable=0;points=[[0,0.5],[1,0.5]];portConstraint=eastwest;labelBackgroundColor=none;" parent="Xntf5tJK9PxHKMnyWvq5-1" vertex="1">
          <mxGeometry y="60" width="300" height="26" as="geometry" />
        </mxCell>
        <mxCell id="Xntf5tJK9PxHKMnyWvq5-6" value="+getFanGridPane() : GridPane&amp;nbsp; (this will create it)" style="text;html=1;strokeColor=#9673a6;fillColor=#e1d5e7;align=left;verticalAlign=top;spacingLeft=4;spacingRight=4;whiteSpace=wrap;overflow=hidden;rotatable=0;points=[[0,0.5],[1,0.5]];portConstraint=eastwest;labelBackgroundColor=none;" parent="Xntf5tJK9PxHKMnyWvq5-1" vertex="1">
          <mxGeometry y="86" width="300" height="26" as="geometry" />
        </mxCell>
        <mxCell id="Xntf5tJK9PxHKMnyWvq5-7" value="- onTempControlClick() : void" style="text;html=1;strokeColor=#9673a6;fillColor=#e1d5e7;align=left;verticalAlign=top;spacingLeft=4;spacingRight=4;whiteSpace=wrap;overflow=hidden;rotatable=0;points=[[0,0.5],[1,0.5]];portConstraint=eastwest;labelBackgroundColor=none;" parent="Xntf5tJK9PxHKMnyWvq5-1" vertex="1">
          <mxGeometry y="112" width="300" height="26" as="geometry" />
        </mxCell>
        <mxCell id="p_RgDi4whr3n8FJ-VYJ--1" value="- onSpeedSliderDrag() : void" style="text;html=1;strokeColor=#9673a6;fillColor=#e1d5e7;align=left;verticalAlign=top;spacingLeft=4;spacingRight=4;whiteSpace=wrap;overflow=hidden;rotatable=0;points=[[0,0.5],[1,0.5]];portConstraint=eastwest;labelBackgroundColor=none;" parent="Xntf5tJK9PxHKMnyWvq5-1" vertex="1">
          <mxGeometry y="138" width="300" height="26" as="geometry" />
        </mxCell>
        <mxCell id="p_RgDi4whr3n8FJ-VYJ--8" value="- onOffsetSliderDrag() : void" style="text;html=1;strokeColor=#9673a6;fillColor=#e1d5e7;align=left;verticalAlign=top;spacingLeft=4;spacingRight=4;whiteSpace=wrap;overflow=hidden;rotatable=0;points=[[0,0.5],[1,0.5]];portConstraint=eastwest;labelBackgroundColor=none;" parent="Xntf5tJK9PxHKMnyWvq5-1" vertex="1">
          <mxGeometry y="164" width="300" height="26" as="geometry" />
        </mxCell>
        <mxCell id="p_RgDi4whr3n8FJ-VYJ--4" value="SerialWriter,&lt;div&gt;Fan,&lt;/div&gt;&lt;div&gt;GUI&lt;/div&gt;" style="whiteSpace=wrap;html=1;" parent="Xntf5tJK9PxHKMnyWvq5-11" vertex="1">
          <mxGeometry x="400" y="242.5" width="70" height="65" as="geometry" />
        </mxCell>
        <mxCell id="p_RgDi4whr3n8FJ-VYJ--5" style="edgeStyle=orthogonalEdgeStyle;rounded=0;orthogonalLoop=1;jettySize=auto;html=1;" parent="Xntf5tJK9PxHKMnyWvq5-11" source="p_RgDi4whr3n8FJ-VYJ--1" target="p_RgDi4whr3n8FJ-VYJ--4" edge="1">
          <mxGeometry relative="1" as="geometry" />
        </mxCell>
        <mxCell id="p_RgDi4whr3n8FJ-VYJ--6" style="edgeStyle=orthogonalEdgeStyle;rounded=0;orthogonalLoop=1;jettySize=auto;html=1;" parent="Xntf5tJK9PxHKMnyWvq5-11" source="Xntf5tJK9PxHKMnyWvq5-7" target="p_RgDi4whr3n8FJ-VYJ--4" edge="1">
          <mxGeometry relative="1" as="geometry" />
        </mxCell>
        <mxCell id="p_RgDi4whr3n8FJ-VYJ--9" style="edgeStyle=orthogonalEdgeStyle;rounded=0;orthogonalLoop=1;jettySize=auto;html=1;entryX=0;entryY=0.5;entryDx=0;entryDy=0;" parent="Xntf5tJK9PxHKMnyWvq5-11" source="p_RgDi4whr3n8FJ-VYJ--8" target="p_RgDi4whr3n8FJ-VYJ--4" edge="1">
          <mxGeometry relative="1" as="geometry" />
        </mxCell>
        <mxCell id="3pDk-Jz_gW3x442I0sk8-18" value="InfoInstance" style="swimlane;html=1;fontStyle=1;align=center;verticalAlign=top;childLayout=stackLayout;horizontal=1;startSize=26;horizontalStack=0;resizeParent=1;resizeLast=0;collapsible=1;marginBottom=0;swimlaneFillColor=#ffffff;rounded=0;shadow=0;comic=0;labelBackgroundColor=none;strokeWidth=1;fillColor=none;fontFamily=Verdana;fontSize=12;strokeColor=#E07A5F;fontColor=#393C56;" vertex="1" parent="Xntf5tJK9PxHKMnyWvq5-11">
          <mxGeometry x="730" y="170" width="260" height="250" as="geometry" />
        </mxCell>
        <mxCell id="3pDk-Jz_gW3x442I0sk8-19" value="- textLabel : Label" style="text;html=1;strokeColor=#9673a6;fillColor=#e1d5e7;align=left;verticalAlign=top;spacingLeft=4;spacingRight=4;whiteSpace=wrap;overflow=hidden;rotatable=0;points=[[0,0.5],[1,0.5]];portConstraint=eastwest;labelBackgroundColor=none;" vertex="1" parent="3pDk-Jz_gW3x442I0sk8-18">
          <mxGeometry y="26" width="260" height="26" as="geometry" />
        </mxCell>
        <mxCell id="3pDk-Jz_gW3x442I0sk8-26" value="- valueLabel : Label" style="text;html=1;strokeColor=#9673a6;fillColor=#e1d5e7;align=left;verticalAlign=top;spacingLeft=4;spacingRight=4;whiteSpace=wrap;overflow=hidden;rotatable=0;points=[[0,0.5],[1,0.5]];portConstraint=eastwest;labelBackgroundColor=none;" vertex="1" parent="3pDk-Jz_gW3x442I0sk8-18">
          <mxGeometry y="52" width="260" height="26" as="geometry" />
        </mxCell>
        <mxCell id="3pDk-Jz_gW3x442I0sk8-27" value="- booleanValue : boolean" style="text;html=1;strokeColor=#9673a6;fillColor=#e1d5e7;align=left;verticalAlign=top;spacingLeft=4;spacingRight=4;whiteSpace=wrap;overflow=hidden;rotatable=0;points=[[0,0.5],[1,0.5]];portConstraint=eastwest;labelBackgroundColor=none;" vertex="1" parent="3pDk-Jz_gW3x442I0sk8-18">
          <mxGeometry y="78" width="260" height="26" as="geometry" />
        </mxCell>
        <mxCell id="3pDk-Jz_gW3x442I0sk8-28" value="- height, width : int" style="text;html=1;strokeColor=#9673a6;fillColor=#e1d5e7;align=left;verticalAlign=top;spacingLeft=4;spacingRight=4;whiteSpace=wrap;overflow=hidden;rotatable=0;points=[[0,0.5],[1,0.5]];portConstraint=eastwest;labelBackgroundColor=none;" vertex="1" parent="3pDk-Jz_gW3x442I0sk8-18">
          <mxGeometry y="104" width="260" height="26" as="geometry" />
        </mxCell>
        <mxCell id="3pDk-Jz_gW3x442I0sk8-23" value="" style="line;html=1;strokeWidth=1;fillColor=none;align=left;verticalAlign=middle;spacingTop=-1;spacingLeft=3;spacingRight=3;rotatable=0;labelPosition=right;points=[];portConstraint=eastwest;labelBackgroundColor=none;strokeColor=#E07A5F;fontColor=#393C56;" vertex="1" parent="3pDk-Jz_gW3x442I0sk8-18">
          <mxGeometry y="130" width="260" height="8" as="geometry" />
        </mxCell>
        <mxCell id="3pDk-Jz_gW3x442I0sk8-29" value="+ InfoInstance(String, String) : InfoInstance" style="text;html=1;strokeColor=#9673a6;fillColor=#e1d5e7;align=left;verticalAlign=top;spacingLeft=4;spacingRight=4;whiteSpace=wrap;overflow=hidden;rotatable=0;points=[[0,0.5],[1,0.5]];portConstraint=eastwest;labelBackgroundColor=none;" vertex="1" parent="3pDk-Jz_gW3x442I0sk8-18">
          <mxGeometry y="138" width="260" height="26" as="geometry" />
        </mxCell>
        <mxCell id="3pDk-Jz_gW3x442I0sk8-30" value="+ InfoInstance(String, boolean) : InfoInstance" style="text;html=1;strokeColor=#9673a6;fillColor=#e1d5e7;align=left;verticalAlign=top;spacingLeft=4;spacingRight=4;whiteSpace=wrap;overflow=hidden;rotatable=0;points=[[0,0.5],[1,0.5]];portConstraint=eastwest;labelBackgroundColor=none;" vertex="1" parent="3pDk-Jz_gW3x442I0sk8-18">
          <mxGeometry y="164" width="260" height="26" as="geometry" />
        </mxCell>
        <mxCell id="3pDk-Jz_gW3x442I0sk8-31" value="+ isBooleanValue() : boolean" style="text;html=1;strokeColor=#9673a6;fillColor=#e1d5e7;align=left;verticalAlign=top;spacingLeft=4;spacingRight=4;whiteSpace=wrap;overflow=hidden;rotatable=0;points=[[0,0.5],[1,0.5]];portConstraint=eastwest;labelBackgroundColor=none;" vertex="1" parent="3pDk-Jz_gW3x442I0sk8-18">
          <mxGeometry y="190" width="260" height="26" as="geometry" />
        </mxCell>
        <mxCell id="3pDk-Jz_gW3x442I0sk8-32" value="+ getInstancePane() : GridPane" style="text;html=1;strokeColor=#9673a6;fillColor=#e1d5e7;align=left;verticalAlign=top;spacingLeft=4;spacingRight=4;whiteSpace=wrap;overflow=hidden;rotatable=0;points=[[0,0.5],[1,0.5]];portConstraint=eastwest;labelBackgroundColor=none;" vertex="1" parent="3pDk-Jz_gW3x442I0sk8-18">
          <mxGeometry y="216" width="260" height="26" as="geometry" />
        </mxCell>
        <mxCell id="p_RgDi4whr3n8FJ-VYJ--14" value="&lt;font face=&quot;Verdana&quot;&gt;&lt;b&gt;enum ReguestType&lt;/b&gt;&lt;/font&gt;" style="swimlane;fontStyle=0;childLayout=stackLayout;horizontal=1;startSize=30;horizontalStack=0;resizeParent=1;resizeParentMax=0;resizeLast=0;collapsible=1;marginBottom=0;whiteSpace=wrap;html=1;labelBackgroundColor=none;fillColor=#F2CC8F;strokeColor=#E07A5F;fontColor=#393C56;" parent="1" vertex="1">
          <mxGeometry x="-2220" y="-710" width="210" height="300" as="geometry" />
        </mxCell>
        <mxCell id="p_RgDi4whr3n8FJ-VYJ--21" value="REGUEST_SPEED_VALUE" style="text;strokeColor=#9673a6;fillColor=#e1d5e7;align=left;verticalAlign=middle;spacingLeft=4;spacingRight=4;overflow=hidden;points=[[0,0.5],[1,0.5]];portConstraint=eastwest;rotatable=0;whiteSpace=wrap;html=1;labelBackgroundColor=none;" parent="p_RgDi4whr3n8FJ-VYJ--14" vertex="1">
          <mxGeometry y="30" width="210" height="30" as="geometry" />
        </mxCell>
        <mxCell id="p_RgDi4whr3n8FJ-VYJ--22" value="REGUEST_SPINNING_STATUS" style="text;strokeColor=#9673a6;fillColor=#e1d5e7;align=left;verticalAlign=middle;spacingLeft=4;spacingRight=4;overflow=hidden;points=[[0,0.5],[1,0.5]];portConstraint=eastwest;rotatable=0;whiteSpace=wrap;html=1;labelBackgroundColor=none;" parent="p_RgDi4whr3n8FJ-VYJ--14" vertex="1">
          <mxGeometry y="60" width="210" height="30" as="geometry" />
        </mxCell>
        <mxCell id="p_RgDi4whr3n8FJ-VYJ--23" value="REGUEST_TEMPERATURE" style="text;strokeColor=#9673a6;fillColor=#e1d5e7;align=left;verticalAlign=middle;spacingLeft=4;spacingRight=4;overflow=hidden;points=[[0,0.5],[1,0.5]];portConstraint=eastwest;rotatable=0;whiteSpace=wrap;html=1;labelBackgroundColor=none;" parent="p_RgDi4whr3n8FJ-VYJ--14" vertex="1">
          <mxGeometry y="90" width="210" height="30" as="geometry" />
        </mxCell>
        <mxCell id="p_RgDi4whr3n8FJ-VYJ--24" value="REGUEST_OFFSET" style="text;strokeColor=#9673a6;fillColor=#e1d5e7;align=left;verticalAlign=middle;spacingLeft=4;spacingRight=4;overflow=hidden;points=[[0,0.5],[1,0.5]];portConstraint=eastwest;rotatable=0;whiteSpace=wrap;html=1;labelBackgroundColor=none;" parent="p_RgDi4whr3n8FJ-VYJ--14" vertex="1">
          <mxGeometry y="120" width="210" height="30" as="geometry" />
        </mxCell>
        <mxCell id="p_RgDi4whr3n8FJ-VYJ--25" value="REGUEST_PWM" style="text;strokeColor=#9673a6;fillColor=#e1d5e7;align=left;verticalAlign=middle;spacingLeft=4;spacingRight=4;overflow=hidden;points=[[0,0.5],[1,0.5]];portConstraint=eastwest;rotatable=0;whiteSpace=wrap;html=1;labelBackgroundColor=none;" parent="p_RgDi4whr3n8FJ-VYJ--14" vertex="1">
          <mxGeometry y="150" width="210" height="30" as="geometry" />
        </mxCell>
        <mxCell id="p_RgDi4whr3n8FJ-VYJ--26" value="REGUEST_IDLE_TIME" style="text;strokeColor=#9673a6;fillColor=#e1d5e7;align=left;verticalAlign=middle;spacingLeft=4;spacingRight=4;overflow=hidden;points=[[0,0.5],[1,0.5]];portConstraint=eastwest;rotatable=0;whiteSpace=wrap;html=1;labelBackgroundColor=none;" parent="p_RgDi4whr3n8FJ-VYJ--14" vertex="1">
          <mxGeometry y="180" width="210" height="30" as="geometry" />
        </mxCell>
        <mxCell id="p_RgDi4whr3n8FJ-VYJ--27" value="REGUEST_DEVICE_ONTIME" style="text;strokeColor=#9673a6;fillColor=#e1d5e7;align=left;verticalAlign=middle;spacingLeft=4;spacingRight=4;overflow=hidden;points=[[0,0.5],[1,0.5]];portConstraint=eastwest;rotatable=0;whiteSpace=wrap;html=1;labelBackgroundColor=none;" parent="p_RgDi4whr3n8FJ-VYJ--14" vertex="1">
          <mxGeometry y="210" width="210" height="30" as="geometry" />
        </mxCell>
        <mxCell id="p_RgDi4whr3n8FJ-VYJ--29" value="REGUEST_CONNECTION_TIME" style="text;strokeColor=#9673a6;fillColor=#e1d5e7;align=left;verticalAlign=middle;spacingLeft=4;spacingRight=4;overflow=hidden;points=[[0,0.5],[1,0.5]];portConstraint=eastwest;rotatable=0;whiteSpace=wrap;html=1;labelBackgroundColor=none;" parent="p_RgDi4whr3n8FJ-VYJ--14" vertex="1">
          <mxGeometry y="240" width="210" height="30" as="geometry" />
        </mxCell>
        <mxCell id="p_RgDi4whr3n8FJ-VYJ--30" value="REGUEST_SPIN_COUNT" style="text;strokeColor=#9673a6;fillColor=#e1d5e7;align=left;verticalAlign=middle;spacingLeft=4;spacingRight=4;overflow=hidden;points=[[0,0.5],[1,0.5]];portConstraint=eastwest;rotatable=0;whiteSpace=wrap;html=1;labelBackgroundColor=none;" parent="p_RgDi4whr3n8FJ-VYJ--14" vertex="1">
          <mxGeometry y="270" width="210" height="30" as="geometry" />
        </mxCell>
        <mxCell id="p_RgDi4whr3n8FJ-VYJ--28" style="edgeStyle=orthogonalEdgeStyle;rounded=0;orthogonalLoop=1;jettySize=auto;html=1;shape=arrow;strokeWidth=2;entryX=0.415;entryY=-0.006;entryDx=0;entryDy=0;entryPerimeter=0;exitX=0.996;exitY=1.061;exitDx=0;exitDy=0;exitPerimeter=0;" parent="1" source="p_RgDi4whr3n8FJ-VYJ--29" target="7tHV_hbjyb579lzm8SB6-86" edge="1">
          <mxGeometry relative="1" as="geometry">
            <mxPoint x="-1825" y="-515" as="sourcePoint" />
            <mxPoint x="-1825" y="-350" as="targetPoint" />
          </mxGeometry>
        </mxCell>
        <mxCell id="p_RgDi4whr3n8FJ-VYJ--33" value="Device (singleton)" style="swimlane;html=1;fontStyle=1;align=center;verticalAlign=top;childLayout=stackLayout;horizontal=1;startSize=26;horizontalStack=0;resizeParent=1;resizeLast=0;collapsible=1;marginBottom=0;swimlaneFillColor=#ffffff;rounded=0;shadow=0;comic=0;labelBackgroundColor=none;strokeWidth=1;fillColor=none;fontFamily=Verdana;fontSize=12;strokeColor=#E07A5F;fontColor=#393C56;" parent="1" vertex="1">
          <mxGeometry x="-1430" y="-50" width="220" height="250" as="geometry" />
        </mxCell>
        <mxCell id="p_RgDi4whr3n8FJ-VYJ--34" value="- name: String" style="text;html=1;strokeColor=none;fillColor=none;align=left;verticalAlign=top;spacingLeft=4;spacingRight=4;whiteSpace=wrap;overflow=hidden;rotatable=0;points=[[0,0.5],[1,0.5]];portConstraint=eastwest;labelBackgroundColor=none;fontColor=#393C56;" parent="p_RgDi4whr3n8FJ-VYJ--33" vertex="1">
          <mxGeometry y="26" width="220" height="26" as="geometry" />
        </mxCell>
        <mxCell id="p_RgDi4whr3n8FJ-VYJ--35" value="- baudRate: int&lt;div&gt;&lt;br&gt;&lt;/div&gt;" style="text;html=1;strokeColor=none;fillColor=none;align=left;verticalAlign=top;spacingLeft=4;spacingRight=4;whiteSpace=wrap;overflow=hidden;rotatable=0;points=[[0,0.5],[1,0.5]];portConstraint=eastwest;labelBackgroundColor=none;fontColor=#393C56;" parent="p_RgDi4whr3n8FJ-VYJ--33" vertex="1">
          <mxGeometry y="52" width="220" height="26" as="geometry" />
        </mxCell>
        <mxCell id="p_RgDi4whr3n8FJ-VYJ--36" value="- startBit: int" style="text;html=1;strokeColor=none;fillColor=none;align=left;verticalAlign=top;spacingLeft=4;spacingRight=4;whiteSpace=wrap;overflow=hidden;rotatable=0;points=[[0,0.5],[1,0.5]];portConstraint=eastwest;labelBackgroundColor=none;fontColor=#393C56;" parent="p_RgDi4whr3n8FJ-VYJ--33" vertex="1">
          <mxGeometry y="78" width="220" height="26" as="geometry" />
        </mxCell>
        <mxCell id="p_RgDi4whr3n8FJ-VYJ--37" value="- endBit: int" style="text;html=1;strokeColor=none;fillColor=none;align=left;verticalAlign=top;spacingLeft=4;spacingRight=4;whiteSpace=wrap;overflow=hidden;rotatable=0;points=[[0,0.5],[1,0.5]];portConstraint=eastwest;labelBackgroundColor=none;fontColor=#393C56;" parent="p_RgDi4whr3n8FJ-VYJ--33" vertex="1">
          <mxGeometry y="104" width="220" height="26" as="geometry" />
        </mxCell>
        <mxCell id="p_RgDi4whr3n8FJ-VYJ--39" value="" style="line;html=1;strokeWidth=1;fillColor=none;align=left;verticalAlign=middle;spacingTop=-1;spacingLeft=3;spacingRight=3;rotatable=0;labelPosition=right;points=[];portConstraint=eastwest;labelBackgroundColor=none;strokeColor=#E07A5F;fontColor=#393C56;" parent="p_RgDi4whr3n8FJ-VYJ--33" vertex="1">
          <mxGeometry y="130" width="220" height="8" as="geometry" />
        </mxCell>
        <mxCell id="p_RgDi4whr3n8FJ-VYJ--40" value="+ Device() : Device" style="text;html=1;strokeColor=none;fillColor=none;align=left;verticalAlign=top;spacingLeft=4;spacingRight=4;whiteSpace=wrap;overflow=hidden;rotatable=0;points=[[0,0.5],[1,0.5]];portConstraint=eastwest;labelBackgroundColor=none;fontColor=#393C56;" parent="p_RgDi4whr3n8FJ-VYJ--33" vertex="1">
          <mxGeometry y="138" width="220" height="30" as="geometry" />
        </mxCell>
        <mxCell id="p_RgDi4whr3n8FJ-VYJ--41" value="+ all getters" style="text;html=1;strokeColor=none;fillColor=none;align=left;verticalAlign=top;spacingLeft=4;spacingRight=4;whiteSpace=wrap;overflow=hidden;rotatable=0;points=[[0,0.5],[1,0.5]];portConstraint=eastwest;labelBackgroundColor=none;fontColor=#393C56;" parent="p_RgDi4whr3n8FJ-VYJ--33" vertex="1">
          <mxGeometry y="168" width="220" height="30" as="geometry" />
        </mxCell>
        <mxCell id="p_RgDi4whr3n8FJ-VYJ--45" value="This can be used&lt;div&gt;to get the baud&lt;/div&gt;&lt;div&gt;to be used later in serial communication&lt;/div&gt;" style="whiteSpace=wrap;html=1;" parent="1" vertex="1">
          <mxGeometry x="-1580" y="-15" width="120" height="60" as="geometry" />
        </mxCell>
        <mxCell id="p_RgDi4whr3n8FJ-VYJ--46" style="edgeStyle=orthogonalEdgeStyle;rounded=0;orthogonalLoop=1;jettySize=auto;html=1;entryX=1;entryY=0.5;entryDx=0;entryDy=0;" parent="1" source="p_RgDi4whr3n8FJ-VYJ--35" target="p_RgDi4whr3n8FJ-VYJ--45" edge="1">
          <mxGeometry relative="1" as="geometry" />
        </mxCell>
        <mxCell id="p_RgDi4whr3n8FJ-VYJ--52" value="&lt;span style=&quot;white-space: pre;&quot;&gt;&#x9;&lt;/span&gt;&lt;span style=&quot;white-space: pre;&quot;&gt;&#x9;&lt;/span&gt;&lt;span style=&quot;white-space: pre;&quot;&gt;&#x9;&lt;/span&gt;DataUtility&lt;span style=&quot;white-space: pre;&quot;&gt;&#x9;&lt;/span&gt;(utilmethdods)" style="swimlane;html=1;fontStyle=1;align=center;verticalAlign=top;childLayout=stackLayout;horizontal=1;startSize=26;horizontalStack=0;resizeParent=1;resizeLast=0;collapsible=1;marginBottom=0;swimlaneFillColor=#ffffff;rounded=0;shadow=0;comic=0;labelBackgroundColor=none;strokeWidth=1;fillColor=none;fontFamily=Verdana;fontSize=12;strokeColor=#E07A5F;fontColor=#393C56;" parent="1" vertex="1">
          <mxGeometry x="-350" y="-725" width="370" height="220" as="geometry" />
        </mxCell>
        <mxCell id="p_RgDi4whr3n8FJ-VYJ--56" value="" style="line;html=1;strokeWidth=1;fillColor=none;align=left;verticalAlign=middle;spacingTop=-1;spacingLeft=3;spacingRight=3;rotatable=0;labelPosition=right;points=[];portConstraint=eastwest;labelBackgroundColor=none;strokeColor=#E07A5F;fontColor=#393C56;" parent="p_RgDi4whr3n8FJ-VYJ--52" vertex="1">
          <mxGeometry y="26" width="370" height="34" as="geometry" />
        </mxCell>
        <mxCell id="p_RgDi4whr3n8FJ-VYJ--60" value="+ static getAsBytes(Object object) : byte[]" style="text;html=1;strokeColor=none;fillColor=none;align=left;verticalAlign=top;spacingLeft=4;spacingRight=4;whiteSpace=wrap;overflow=hidden;rotatable=0;points=[[0,0.5],[1,0.5]];portConstraint=eastwest;labelBackgroundColor=none;fontColor=#393C56;" parent="p_RgDi4whr3n8FJ-VYJ--52" vertex="1">
          <mxGeometry y="60" width="370" height="30" as="geometry" />
        </mxCell>
      </root>
    </mxGraphModel>
  </diagram>
  <diagram name="Serial communication" id="8xthS7vOZuBHsTig1a03">
    <mxGraphModel dx="4234" dy="1392" grid="0" gridSize="100" guides="1" tooltips="1" connect="1" arrows="1" fold="1" page="1" pageScale="1" pageWidth="827" pageHeight="1169" math="0" shadow="0">
      <root>
        <mxCell id="0" />
        <mxCell id="1" parent="0" />
        <mxCell id="-okSqHUD19jg2IScVFTi-27" value="&lt;font style=&quot;font-size: 16px;&quot;&gt;PC&lt;/font&gt;" style="swimlane;whiteSpace=wrap;html=1;labelBackgroundColor=none;fillColor=#5D7F99;strokeColor=#D0CEE2;fontColor=#1A1A1A;" parent="1" vertex="1">
          <mxGeometry x="-900" y="90" width="910" height="690" as="geometry" />
        </mxCell>
        <mxCell id="-okSqHUD19jg2IScVFTi-43" value="ERROR HANDLING" style="rounded=1;whiteSpace=wrap;html=1;labelBackgroundColor=none;fillColor=#f8cecc;strokeColor=#b85450;" parent="-okSqHUD19jg2IScVFTi-27" vertex="1">
          <mxGeometry x="530" y="424" width="120" height="60" as="geometry" />
        </mxCell>
        <mxCell id="-okSqHUD19jg2IScVFTi-57" value="MESSAGE" style="swimlane;whiteSpace=wrap;html=1;labelBackgroundColor=none;fillColor=#5D7F99;strokeColor=#D0CEE2;fontColor=#1A1A1A;" parent="-okSqHUD19jg2IScVFTi-27" vertex="1">
          <mxGeometry x="468" y="210" width="260" height="100" as="geometry" />
        </mxCell>
        <mxCell id="-okSqHUD19jg2IScVFTi-67" style="edgeStyle=orthogonalEdgeStyle;rounded=0;orthogonalLoop=1;jettySize=auto;html=1;entryX=0;entryY=0.5;entryDx=0;entryDy=0;labelBackgroundColor=none;strokeColor=#736CA8;fontColor=default;" parent="-okSqHUD19jg2IScVFTi-57" source="-okSqHUD19jg2IScVFTi-60" target="-okSqHUD19jg2IScVFTi-63" edge="1">
          <mxGeometry relative="1" as="geometry" />
        </mxCell>
        <mxCell id="-okSqHUD19jg2IScVFTi-60" value="TYPE" style="rounded=1;whiteSpace=wrap;html=1;labelBackgroundColor=none;fillColor=#5D7F99;strokeColor=#D0CEE2;fontColor=#1A1A1A;" parent="-okSqHUD19jg2IScVFTi-57" vertex="1">
          <mxGeometry x="10" y="40" width="70" height="40" as="geometry" />
        </mxCell>
        <mxCell id="-okSqHUD19jg2IScVFTi-68" style="edgeStyle=orthogonalEdgeStyle;rounded=0;orthogonalLoop=1;jettySize=auto;html=1;entryX=0;entryY=0.5;entryDx=0;entryDy=0;labelBackgroundColor=none;strokeColor=#736CA8;fontColor=default;" parent="-okSqHUD19jg2IScVFTi-57" source="-okSqHUD19jg2IScVFTi-63" target="-okSqHUD19jg2IScVFTi-64" edge="1">
          <mxGeometry relative="1" as="geometry" />
        </mxCell>
        <mxCell id="-okSqHUD19jg2IScVFTi-63" value="MESSAGE" style="rounded=1;whiteSpace=wrap;html=1;labelBackgroundColor=none;fillColor=#5D7F99;strokeColor=#D0CEE2;fontColor=#1A1A1A;" parent="-okSqHUD19jg2IScVFTi-57" vertex="1">
          <mxGeometry x="95" y="40" width="70" height="40" as="geometry" />
        </mxCell>
        <mxCell id="-okSqHUD19jg2IScVFTi-64" value="VALUE" style="rounded=1;whiteSpace=wrap;html=1;labelBackgroundColor=none;fillColor=#5D7F99;strokeColor=#D0CEE2;fontColor=#1A1A1A;" parent="-okSqHUD19jg2IScVFTi-57" vertex="1">
          <mxGeometry x="180" y="40" width="70" height="40" as="geometry" />
        </mxCell>
        <mxCell id="-okSqHUD19jg2IScVFTi-104" value="GUI" style="swimlane;whiteSpace=wrap;html=1;labelBackgroundColor=none;fillColor=#5D7F99;strokeColor=#D0CEE2;fontColor=#1A1A1A;" parent="-okSqHUD19jg2IScVFTi-27" vertex="1">
          <mxGeometry x="60" y="50" width="280" height="230" as="geometry" />
        </mxCell>
        <mxCell id="-okSqHUD19jg2IScVFTi-106" value="USER INTERACTION" style="rounded=1;whiteSpace=wrap;html=1;labelBackgroundColor=none;fillColor=#5D7F99;strokeColor=#D0CEE2;fontColor=#1A1A1A;" parent="-okSqHUD19jg2IScVFTi-104" vertex="1">
          <mxGeometry x="10" y="50" width="110" height="40" as="geometry" />
        </mxCell>
        <mxCell id="-okSqHUD19jg2IScVFTi-107" value="NODE VALUE CHANGE" style="rounded=1;whiteSpace=wrap;html=1;labelBackgroundColor=none;fillColor=#5D7F99;strokeColor=#D0CEE2;fontColor=#1A1A1A;" parent="-okSqHUD19jg2IScVFTi-104" vertex="1">
          <mxGeometry x="10" y="170" width="110" height="40" as="geometry" />
        </mxCell>
        <mxCell id="-okSqHUD19jg2IScVFTi-41" value="COMMUNICATION REGUEST TO SERIAL" style="rounded=1;whiteSpace=wrap;html=1;labelBackgroundColor=none;fillColor=#5D7F99;strokeColor=#D0CEE2;fontColor=#1A1A1A;" parent="-okSqHUD19jg2IScVFTi-27" vertex="1">
          <mxGeometry x="420" y="70" width="120" height="60" as="geometry" />
        </mxCell>
        <mxCell id="-okSqHUD19jg2IScVFTi-108" style="edgeStyle=orthogonalEdgeStyle;rounded=0;orthogonalLoop=1;jettySize=auto;html=1;entryX=0;entryY=0.5;entryDx=0;entryDy=0;labelBackgroundColor=none;strokeColor=#736CA8;fontColor=default;" parent="-okSqHUD19jg2IScVFTi-27" source="-okSqHUD19jg2IScVFTi-106" target="-okSqHUD19jg2IScVFTi-41" edge="1">
          <mxGeometry relative="1" as="geometry" />
        </mxCell>
        <mxCell id="-okSqHUD19jg2IScVFTi-166" style="edgeStyle=orthogonalEdgeStyle;rounded=0;orthogonalLoop=1;jettySize=auto;html=1;strokeColor=#736CA8;align=center;verticalAlign=middle;fontFamily=Helvetica;fontSize=11;fontColor=default;labelBackgroundColor=none;endArrow=classic;" parent="-okSqHUD19jg2IScVFTi-27" source="-okSqHUD19jg2IScVFTi-164" target="-okSqHUD19jg2IScVFTi-107" edge="1">
          <mxGeometry relative="1" as="geometry">
            <Array as="points">
              <mxPoint x="125" y="378" />
              <mxPoint x="125" y="378" />
            </Array>
          </mxGeometry>
        </mxCell>
        <mxCell id="-okSqHUD19jg2IScVFTi-164" value="GUI CONTROLLER" style="rounded=1;whiteSpace=wrap;html=1;fontFamily=Helvetica;fontSize=11;fontColor=#1A1A1A;labelBackgroundColor=none;fillColor=#5D7F99;strokeColor=#D0CEE2;" parent="-okSqHUD19jg2IScVFTi-27" vertex="1">
          <mxGeometry x="73" y="424" width="120" height="60" as="geometry" />
        </mxCell>
        <mxCell id="-okSqHUD19jg2IScVFTi-28" value="&lt;font style=&quot;font-size: 16px;&quot;&gt;ATtiny85&lt;/font&gt;" style="swimlane;whiteSpace=wrap;html=1;labelBackgroundColor=none;fillColor=#5D7F99;strokeColor=#D0CEE2;fontColor=#1A1A1A;" parent="1" vertex="1">
          <mxGeometry x="70" y="90" width="900" height="680" as="geometry" />
        </mxCell>
        <mxCell id="-okSqHUD19jg2IScVFTi-49" value="COMMUNICATION ALLOWED?&lt;br&gt;TO SERIAL" style="rounded=1;whiteSpace=wrap;html=1;labelBackgroundColor=none;fillColor=#5D7F99;strokeColor=#D0CEE2;fontColor=#1A1A1A;" parent="-okSqHUD19jg2IScVFTi-28" vertex="1">
          <mxGeometry x="40" y="70" width="120" height="60" as="geometry" />
        </mxCell>
        <mxCell id="-okSqHUD19jg2IScVFTi-116" style="edgeStyle=orthogonalEdgeStyle;curved=1;rounded=0;orthogonalLoop=1;jettySize=auto;html=1;entryX=0.5;entryY=0;entryDx=0;entryDy=0;strokeColor=#736CA8;align=center;verticalAlign=middle;fontFamily=Helvetica;fontSize=11;fontColor=default;labelBackgroundColor=none;endArrow=classic;exitX=0.025;exitY=0.971;exitDx=0;exitDy=0;exitPerimeter=0;" parent="-okSqHUD19jg2IScVFTi-28" source="-okSqHUD19jg2IScVFTi-77" target="-okSqHUD19jg2IScVFTi-80" edge="1">
          <mxGeometry relative="1" as="geometry" />
        </mxCell>
        <mxCell id="-okSqHUD19jg2IScVFTi-118" value="START" style="edgeLabel;html=1;align=center;verticalAlign=middle;resizable=0;points=[];fontFamily=Helvetica;fontSize=11;fontColor=#1A1A1A;labelBackgroundColor=none;" parent="-okSqHUD19jg2IScVFTi-116" vertex="1" connectable="0">
          <mxGeometry x="-0.5556" y="-4" relative="1" as="geometry">
            <mxPoint as="offset" />
          </mxGeometry>
        </mxCell>
        <mxCell id="-okSqHUD19jg2IScVFTi-117" style="edgeStyle=orthogonalEdgeStyle;curved=1;rounded=0;orthogonalLoop=1;jettySize=auto;html=1;entryX=0.75;entryY=0;entryDx=0;entryDy=0;strokeColor=#736CA8;align=center;verticalAlign=middle;fontFamily=Helvetica;fontSize=11;fontColor=default;labelBackgroundColor=none;endArrow=classic;exitX=0.25;exitY=1;exitDx=0;exitDy=0;" parent="-okSqHUD19jg2IScVFTi-28" source="-okSqHUD19jg2IScVFTi-77" target="-okSqHUD19jg2IScVFTi-80" edge="1">
          <mxGeometry relative="1" as="geometry" />
        </mxCell>
        <mxCell id="-okSqHUD19jg2IScVFTi-119" value="STOP" style="edgeLabel;html=1;align=center;verticalAlign=middle;resizable=0;points=[];fontFamily=Helvetica;fontSize=11;fontColor=#1A1A1A;labelBackgroundColor=none;" parent="-okSqHUD19jg2IScVFTi-117" vertex="1" connectable="0">
          <mxGeometry x="-0.5075" y="-6" relative="1" as="geometry">
            <mxPoint as="offset" />
          </mxGeometry>
        </mxCell>
        <mxCell id="-okSqHUD19jg2IScVFTi-120" style="edgeStyle=orthogonalEdgeStyle;curved=1;rounded=0;orthogonalLoop=1;jettySize=auto;html=1;entryX=0.75;entryY=0;entryDx=0;entryDy=0;strokeColor=#736CA8;align=center;verticalAlign=middle;fontFamily=Helvetica;fontSize=11;fontColor=default;labelBackgroundColor=none;endArrow=classic;exitX=0.978;exitY=0.963;exitDx=0;exitDy=0;exitPerimeter=0;" parent="-okSqHUD19jg2IScVFTi-28" source="-okSqHUD19jg2IScVFTi-77" target="-okSqHUD19jg2IScVFTi-82" edge="1">
          <mxGeometry relative="1" as="geometry">
            <Array as="points">
              <mxPoint x="710" y="157" />
              <mxPoint x="710" y="222" />
              <mxPoint x="737" y="222" />
            </Array>
          </mxGeometry>
        </mxCell>
        <mxCell id="-okSqHUD19jg2IScVFTi-125" value="OFFSET" style="edgeLabel;html=1;align=center;verticalAlign=middle;resizable=0;points=[];fontFamily=Helvetica;fontSize=11;fontColor=#1A1A1A;labelBackgroundColor=none;" parent="-okSqHUD19jg2IScVFTi-120" vertex="1" connectable="0">
          <mxGeometry x="0.1826" y="-6" relative="1" as="geometry">
            <mxPoint as="offset" />
          </mxGeometry>
        </mxCell>
        <mxCell id="-okSqHUD19jg2IScVFTi-121" style="edgeStyle=orthogonalEdgeStyle;curved=1;rounded=0;orthogonalLoop=1;jettySize=auto;html=1;entryX=0.5;entryY=0;entryDx=0;entryDy=0;strokeColor=#736CA8;align=center;verticalAlign=middle;fontFamily=Helvetica;fontSize=11;fontColor=default;labelBackgroundColor=none;endArrow=classic;" parent="-okSqHUD19jg2IScVFTi-28" source="-okSqHUD19jg2IScVFTi-77" target="-okSqHUD19jg2IScVFTi-82" edge="1">
          <mxGeometry relative="1" as="geometry">
            <Array as="points">
              <mxPoint x="640" y="222" />
              <mxPoint x="702" y="222" />
            </Array>
          </mxGeometry>
        </mxCell>
        <mxCell id="-okSqHUD19jg2IScVFTi-124" value="&lt;font style=&quot;font-size: 10px;&quot;&gt;TEMPERATURE&lt;/font&gt;&lt;div style=&quot;font-size: 10px;&quot;&gt;&lt;font style=&quot;font-size: 10px;&quot;&gt;CONTROL&lt;/font&gt;&lt;/div&gt;" style="edgeLabel;html=1;align=center;verticalAlign=middle;resizable=0;points=[];fontFamily=Helvetica;fontSize=11;fontColor=#1A1A1A;labelBackgroundColor=none;" parent="-okSqHUD19jg2IScVFTi-121" vertex="1" connectable="0">
          <mxGeometry x="-0.1475" y="4" relative="1" as="geometry">
            <mxPoint as="offset" />
          </mxGeometry>
        </mxCell>
        <mxCell id="-okSqHUD19jg2IScVFTi-122" style="edgeStyle=orthogonalEdgeStyle;curved=1;rounded=0;orthogonalLoop=1;jettySize=auto;html=1;entryX=0.197;entryY=-0.001;entryDx=0;entryDy=0;strokeColor=#736CA8;align=center;verticalAlign=middle;fontFamily=Helvetica;fontSize=11;fontColor=default;labelBackgroundColor=none;endArrow=classic;entryPerimeter=0;" parent="-okSqHUD19jg2IScVFTi-28" source="-okSqHUD19jg2IScVFTi-77" target="-okSqHUD19jg2IScVFTi-82" edge="1">
          <mxGeometry relative="1" as="geometry">
            <Array as="points">
              <mxPoint x="582" y="230" />
              <mxPoint x="660" y="230" />
              <mxPoint x="660" y="285" />
            </Array>
          </mxGeometry>
        </mxCell>
        <mxCell id="-okSqHUD19jg2IScVFTi-123" value="SPEED" style="edgeLabel;html=1;align=center;verticalAlign=middle;resizable=0;points=[];fontFamily=Helvetica;fontSize=11;fontColor=#1A1A1A;labelBackgroundColor=none;" parent="-okSqHUD19jg2IScVFTi-122" vertex="1" connectable="0">
          <mxGeometry x="-0.1498" y="1" relative="1" as="geometry">
            <mxPoint as="offset" />
          </mxGeometry>
        </mxCell>
        <mxCell id="-okSqHUD19jg2IScVFTi-77" value="MESSAGE TYPE" style="rounded=1;whiteSpace=wrap;html=1;labelBackgroundColor=none;fillColor=#5D7F99;strokeColor=#D0CEE2;fontColor=#1A1A1A;" parent="-okSqHUD19jg2IScVFTi-28" vertex="1">
          <mxGeometry x="479.99999999999994" y="90" width="203.95" height="70" as="geometry" />
        </mxCell>
        <mxCell id="-okSqHUD19jg2IScVFTi-101" style="edgeStyle=orthogonalEdgeStyle;rounded=0;orthogonalLoop=1;jettySize=auto;html=1;entryX=0.25;entryY=0;entryDx=0;entryDy=0;labelBackgroundColor=none;strokeColor=#736CA8;fontColor=default;" parent="-okSqHUD19jg2IScVFTi-28" source="-okSqHUD19jg2IScVFTi-80" target="-okSqHUD19jg2IScVFTi-90" edge="1">
          <mxGeometry relative="1" as="geometry" />
        </mxCell>
        <mxCell id="-okSqHUD19jg2IScVFTi-80" value="ON/OFF &#xa;CONTROLLER" style="rounded=1;labelBackgroundColor=none;fillColor=#5D7F99;strokeColor=#D0CEE2;fontColor=#1A1A1A;" parent="-okSqHUD19jg2IScVFTi-28" vertex="1">
          <mxGeometry x="370" y="285" width="130" height="70" as="geometry" />
        </mxCell>
        <mxCell id="-okSqHUD19jg2IScVFTi-100" style="edgeStyle=orthogonalEdgeStyle;rounded=0;orthogonalLoop=1;jettySize=auto;html=1;entryX=0.75;entryY=0;entryDx=0;entryDy=0;labelBackgroundColor=none;strokeColor=#736CA8;fontColor=default;" parent="-okSqHUD19jg2IScVFTi-28" source="-okSqHUD19jg2IScVFTi-82" target="-okSqHUD19jg2IScVFTi-90" edge="1">
          <mxGeometry relative="1" as="geometry" />
        </mxCell>
        <mxCell id="-okSqHUD19jg2IScVFTi-82" value="SPEED CONTROLLER&#xa;(PWM)" style="rounded=1;labelBackgroundColor=none;fillColor=#5D7F99;strokeColor=#D0CEE2;fontColor=#1A1A1A;" parent="-okSqHUD19jg2IScVFTi-28" vertex="1">
          <mxGeometry x="632.12" y="285" width="140" height="70" as="geometry" />
        </mxCell>
        <mxCell id="-okSqHUD19jg2IScVFTi-90" value="STATUS" style="rounded=1;whiteSpace=wrap;html=1;labelBackgroundColor=none;fillColor=#5D7F99;strokeColor=#D0CEE2;fontColor=#1A1A1A;" parent="-okSqHUD19jg2IScVFTi-28" vertex="1">
          <mxGeometry x="479.99999999999994" y="440" width="152.12" height="70" as="geometry" />
        </mxCell>
        <mxCell id="-okSqHUD19jg2IScVFTi-69" style="edgeStyle=orthogonalEdgeStyle;rounded=0;orthogonalLoop=1;jettySize=auto;html=1;entryX=0;entryY=0.5;entryDx=0;entryDy=0;labelBackgroundColor=none;strokeColor=#736CA8;fontColor=default;" parent="1" target="-okSqHUD19jg2IScVFTi-77" edge="1">
          <mxGeometry relative="1" as="geometry">
            <mxPoint x="500" y="249.9999999999999" as="targetPoint" />
            <mxPoint x="-270" y="400" as="sourcePoint" />
            <Array as="points">
              <mxPoint x="-270" y="420" />
              <mxPoint x="360" y="420" />
              <mxPoint x="360" y="215" />
            </Array>
          </mxGeometry>
        </mxCell>
        <mxCell id="-okSqHUD19jg2IScVFTi-50" style="edgeStyle=orthogonalEdgeStyle;rounded=0;orthogonalLoop=1;jettySize=auto;html=1;entryX=0;entryY=0.5;entryDx=0;entryDy=0;labelBackgroundColor=none;strokeColor=#736CA8;fontColor=default;" parent="1" source="-okSqHUD19jg2IScVFTi-41" target="-okSqHUD19jg2IScVFTi-49" edge="1">
          <mxGeometry relative="1" as="geometry" />
        </mxCell>
        <mxCell id="-okSqHUD19jg2IScVFTi-150" style="edgeStyle=orthogonalEdgeStyle;rounded=0;orthogonalLoop=1;jettySize=auto;html=1;strokeColor=#736CA8;align=center;verticalAlign=middle;fontFamily=Helvetica;fontSize=11;fontColor=default;labelBackgroundColor=none;endArrow=classic;entryX=0.5;entryY=1;entryDx=0;entryDy=0;" parent="1" source="-okSqHUD19jg2IScVFTi-49" target="-okSqHUD19jg2IScVFTi-43" edge="1">
          <mxGeometry relative="1" as="geometry">
            <mxPoint x="170.00000000000045" y="600" as="targetPoint" />
            <Array as="points">
              <mxPoint x="170" y="594" />
              <mxPoint x="-310" y="594" />
            </Array>
          </mxGeometry>
        </mxCell>
        <mxCell id="shnoUBvC_lVixRBEQ3f8-5" value="FALSE" style="edgeLabel;html=1;align=center;verticalAlign=middle;resizable=0;points=[];strokeColor=#D0CEE2;fontColor=#1A1A1A;fillColor=#5D7F99;" parent="-okSqHUD19jg2IScVFTi-150" vertex="1" connectable="0">
          <mxGeometry x="-0.8495" relative="1" as="geometry">
            <mxPoint as="offset" />
          </mxGeometry>
        </mxCell>
        <mxCell id="shnoUBvC_lVixRBEQ3f8-7" value="FALSE" style="edgeLabel;html=1;align=center;verticalAlign=middle;resizable=0;points=[];strokeColor=#D0CEE2;fontColor=#1A1A1A;fillColor=#5D7F99;" parent="-okSqHUD19jg2IScVFTi-150" vertex="1" connectable="0">
          <mxGeometry x="0.5695" y="1" relative="1" as="geometry">
            <mxPoint as="offset" />
          </mxGeometry>
        </mxCell>
        <mxCell id="-okSqHUD19jg2IScVFTi-152" style="edgeStyle=orthogonalEdgeStyle;rounded=0;orthogonalLoop=1;jettySize=auto;html=1;strokeColor=#736CA8;align=center;verticalAlign=middle;fontFamily=Helvetica;fontSize=11;fontColor=default;labelBackgroundColor=none;endArrow=classic;" parent="1" source="-okSqHUD19jg2IScVFTi-49" target="-okSqHUD19jg2IScVFTi-57" edge="1">
          <mxGeometry relative="1" as="geometry">
            <mxPoint x="-300" y="300" as="targetPoint" />
            <Array as="points">
              <mxPoint x="170" y="254" />
              <mxPoint x="-302" y="254" />
            </Array>
          </mxGeometry>
        </mxCell>
        <mxCell id="shnoUBvC_lVixRBEQ3f8-4" value="TRUE" style="edgeLabel;html=1;align=center;verticalAlign=middle;resizable=0;points=[];strokeColor=#D0CEE2;fontColor=#1A1A1A;fillColor=#5D7F99;" parent="-okSqHUD19jg2IScVFTi-152" vertex="1" connectable="0">
          <mxGeometry x="-0.7242" y="2" relative="1" as="geometry">
            <mxPoint as="offset" />
          </mxGeometry>
        </mxCell>
        <mxCell id="shnoUBvC_lVixRBEQ3f8-6" value="TRUE" style="edgeLabel;html=1;align=center;verticalAlign=middle;resizable=0;points=[];strokeColor=#D0CEE2;fontColor=#1A1A1A;fillColor=#5D7F99;" parent="-okSqHUD19jg2IScVFTi-152" vertex="1" connectable="0">
          <mxGeometry x="0.3322" y="1" relative="1" as="geometry">
            <mxPoint as="offset" />
          </mxGeometry>
        </mxCell>
        <mxCell id="ryPI0VEuzuNZgVtx0aeH-1" style="edgeStyle=orthogonalEdgeStyle;rounded=0;orthogonalLoop=1;jettySize=auto;html=1;entryX=0.5;entryY=1;entryDx=0;entryDy=0;exitX=0.5;exitY=1;exitDx=0;exitDy=0;" edge="1" parent="1" source="-okSqHUD19jg2IScVFTi-90" target="-okSqHUD19jg2IScVFTi-164">
          <mxGeometry relative="1" as="geometry">
            <Array as="points">
              <mxPoint x="626" y="727" />
              <mxPoint x="-767" y="727" />
            </Array>
          </mxGeometry>
        </mxCell>
      </root>
    </mxGraphModel>
  </diagram>
</mxfile>
